<svg xmlns="http://www.w3.org/2000/svg" xmlns:xlink="http://www.w3.org/1999/xlink" width="48.001" height="48.001" viewBox="0 0 48.001 48.001">
  <defs>
    <linearGradient id="linear-gradient" x1="0.5" x2="0.5" y2="1" gradientUnits="objectBoundingBox">
      <stop offset="0" stop-color="#57fffe"/>
      <stop offset="1" stop-color="#0057bc"/>
    </linearGradient>
  </defs>
  <path id="coingecko" d="M16072,4288v-48h48v48Zm.857-.858h46.286v-46.286h-46.286ZM16096,4279a14.967,14.967,0,1,1,.068,0Zm3.928-21.086c1.056.417,2.1.833,3.107,1.125,5.308,1.448,4.794,4.349,2.2,6.772-.655.676-1.354,1.311-1.808,1.772-2,2.035-5.543,6.008-4.965,10.07a13.865,13.865,0,1,0-13.868-5.761c1.23-2.779,1.392-5.207,1.663-8.471.2-3.014,1.027-5.522,6.165-6.934a7.834,7.834,0,0,1,3.629.113,6.183,6.183,0,0,1,1.408-.174,2.58,2.58,0,0,1,1.7.494,2.908,2.908,0,0,1,.651.72.851.851,0,0,1,.117.275Zm-3.738,8.233-.016.016a3.766,3.766,0,0,0,2.516,1.108,8.148,8.148,0,0,0,2.747-.315,15.013,15.013,0,0,0,2.573-.938,9.789,9.789,0,0,0,2.3-1.477l-.024-.024,0-.008c-.057.045-.113.085-.17.125q-.394.273-.8.522s-.009,0-.013,0a11.955,11.955,0,0,1-1.371.647,14.407,14.407,0,0,1-2.564.8,11.943,11.943,0,0,1-2.643.214,4.769,4.769,0,0,1-2.508-.692Zm6.865-2.88a.583.583,0,1,0,.583-.587h0A.586.586,0,0,0,16103.053,4263.265Zm-11.7-2.682a2.68,2.68,0,1,0,2.682-2.683A2.68,2.68,0,0,0,16091.354,4260.583Zm8.572-2.67Zm-7.779,2.7a1.887,1.887,0,1,1,1.889,1.881A1.887,1.887,0,0,1,16092.146,4260.611Z" transform="translate(-16071.999 -4239.999)" fill="url(#linear-gradient)"/>
</svg>
