<svg xmlns="http://www.w3.org/2000/svg" xmlns:xlink="http://www.w3.org/1999/xlink" width="47.999" height="47.999" viewBox="0 0 47.999 47.999">
  <defs>
    <linearGradient id="linear-gradient" x1="0.5" x2="0.5" y2="1" gradientUnits="objectBoundingBox">
      <stop offset="0" stop-color="#57fffe"/>
      <stop offset="1" stop-color="#0057bc"/>
    </linearGradient>
  </defs>
  <path id="discord" d="M0,48V0H48V48Zm.858-.855H47.141V.857H.858ZM29.171,31.705a11.817,11.817,0,0,0,5.1-3.438,14.89,14.89,0,0,1-9.463,2.958,14.919,14.919,0,0,1-9.463-2.958,11.8,11.8,0,0,0,5.1,3.438L19.489,33a11.142,11.142,0,0,1-7.682-3.545c.521-8.617,3.544-13.007,3.544-13.007a12.357,12.357,0,0,1,5.91-2.366l.285.577a11.7,11.7,0,0,0-5.609,2.967,17.816,17.816,0,0,1,17.737,0,11.451,11.451,0,0,0-5.609-2.967l.284-.577a12.437,12.437,0,0,1,5.91,2.366s3.023,4.39,3.561,13.007A11.142,11.142,0,0,1,30.138,33Zm-2.6-6.982a2.231,2.231,0,0,0,2.073,2.365,2.237,2.237,0,0,0,2.073-2.365,2.231,2.231,0,0,0-2.073-2.366A2.231,2.231,0,0,0,26.569,24.723Zm-7.691,0a2.231,2.231,0,0,0,2.073,2.365,2.231,2.231,0,0,0,2.073-2.365,2.231,2.231,0,0,0-2.073-2.366A2.231,2.231,0,0,0,18.878,24.723Z" fill="url(#linear-gradient)"/>
</svg>
