<svg width="36" height="36" viewBox="0 0 36 36" fill="none" xmlns="http://www.w3.org/2000/svg">
<path d="M26.7095 10.1957C26.7026 10.1824 26.691 10.172 26.677 10.1663C25.0533 9.43301 23.3398 8.91009 21.5794 8.61066C21.5634 8.60773 21.5469 8.60984 21.5322 8.61669C21.5175 8.62354 21.5054 8.63478 21.4975 8.64881C21.2642 9.06567 21.0524 9.49386 20.8629 9.93173C18.9654 9.64818 17.0352 9.64818 15.1376 9.93173C14.9468 9.49274 14.7316 9.06445 14.493 8.64881C14.4848 8.63509 14.4726 8.62411 14.458 8.6173C14.4433 8.61049 14.427 8.60818 14.411 8.61066C12.6505 8.90946 10.9369 9.43242 9.31338 10.1664C9.29948 10.1722 9.28775 10.1821 9.27981 10.1947C6.03314 14.9675 5.14375 19.6228 5.58005 24.2206C5.58128 24.2318 5.5848 24.2427 5.59039 24.2526C5.59599 24.2625 5.60356 24.2712 5.61264 24.2782C7.50314 25.6561 9.6177 26.7079 11.8661 27.3886C11.8819 27.3933 11.8988 27.3931 11.9145 27.388C11.9302 27.383 11.944 27.3733 11.9539 27.3603C12.4368 26.7135 12.8647 26.0286 13.2332 25.3126C13.2383 25.3027 13.2412 25.292 13.2417 25.281C13.2423 25.2699 13.2404 25.259 13.2363 25.2487C13.2322 25.2385 13.2259 25.2292 13.2179 25.2215C13.2099 25.2138 13.2004 25.2078 13.1898 25.204C12.5151 24.9499 11.8619 24.6436 11.2363 24.2878C11.2249 24.2813 11.2154 24.272 11.2085 24.261C11.2016 24.2499 11.1976 24.2373 11.1968 24.2244C11.196 24.2114 11.1985 24.1985 11.204 24.1867C11.2095 24.1749 11.2179 24.1646 11.2284 24.1568C11.36 24.06 11.4894 23.9602 11.6164 23.8576C11.6275 23.8485 11.641 23.8427 11.6553 23.8409C11.6696 23.839 11.6841 23.841 11.6973 23.8468C15.7958 25.6881 20.233 25.6881 24.283 23.8468C24.2962 23.8407 24.3109 23.8383 24.3254 23.84C24.3399 23.8418 24.3536 23.8475 24.3649 23.8566C24.492 23.9598 24.6217 24.0599 24.7538 24.1568C24.7644 24.1646 24.7728 24.1748 24.7784 24.1865C24.784 24.1983 24.7866 24.2112 24.7859 24.2241C24.7852 24.2371 24.7813 24.2497 24.7745 24.2608C24.7677 24.2719 24.7583 24.2812 24.7469 24.2878C24.1228 24.6465 23.4689 24.9527 22.7924 25.2031C22.7819 25.207 22.7724 25.2131 22.7644 25.2209C22.7565 25.2287 22.7503 25.2381 22.7463 25.2484C22.7422 25.2588 22.7405 25.2698 22.7411 25.2809C22.7417 25.2919 22.7447 25.3027 22.7498 25.3126C23.1245 26.0246 23.5518 26.7086 24.0282 27.3591C24.0378 27.3725 24.0515 27.3825 24.0673 27.3878C24.0831 27.393 24.1001 27.3933 24.116 27.3885C26.3684 26.7101 28.4867 25.6582 30.3796 24.2782C30.3888 24.2716 30.3965 24.2631 30.4021 24.2533C30.4077 24.2436 30.4111 24.2327 30.4122 24.2215C30.9345 18.9061 29.5377 14.2888 26.7095 10.1957ZM13.8453 21.421C12.6114 21.421 11.5946 20.3063 11.5946 18.9374C11.5946 17.5684 12.5917 16.4537 13.8453 16.4537C15.1088 16.4537 16.1157 17.5781 16.096 18.9373C16.096 20.3063 15.0989 21.421 13.8453 21.421ZM22.1668 21.421C20.9329 21.421 19.9161 20.3063 19.9161 18.9374C19.9161 17.5684 20.9131 16.4537 22.1668 16.4537C23.4303 16.4537 24.4372 17.5781 24.4175 18.9373C24.4175 20.3063 23.4303 21.421 22.1668 21.421Z" fill="white"/>
</svg>
