<svg xmlns="http://www.w3.org/2000/svg" xmlns:xlink="http://www.w3.org/1999/xlink" width="47.999" height="47.999" viewBox="0 0 47.999 47.999">
  <defs>
    <linearGradient id="linear-gradient" x1="0.5" x2="0.5" y2="1" gradientUnits="objectBoundingBox">
      <stop offset="0" stop-color="#57fffe"/>
      <stop offset="1" stop-color="#0057bc"/>
    </linearGradient>
    <linearGradient id="linear-gradient-2" x1="-0.048" y1="0.603" x2="1" y2="0.634" gradientUnits="objectBoundingBox">
      <stop offset="0" stop-color="#1b8cd1"/>
      <stop offset="1" stop-color="#3ccbea"/>
    </linearGradient>
    <linearGradient id="linear-gradient-3" x1="0.963" y1="0.4" x2="0" y2="0.332" xlink:href="#linear-gradient-2"/>
  </defs>
  <g id="geckoterminal" transform="translate(-403.117 -4452)">
    <path id="Rectangle_7845" data-name="Rectangle 7845" d="M.857.857V47.142H47.142V.857H.857M0,0H48V48H0Z" transform="translate(403.117 4452)" fill="url(#linear-gradient)"/>
    <path id="Union_410" data-name="Union 410" d="M15518.677-547.749a10.673,10.673,0,0,1,1.56-.881c.537-.257,1.083-.479,1.613-.694l0,0a11.038,11.038,0,0,0,2.544-1.274l1.7,1.7a5.872,5.872,0,0,1,.745.908,5.728,5.728,0,0,1,.525,1.005,5.654,5.654,0,0,1,.319,1.072,5.838,5.838,0,0,1,.105,1.107,5.828,5.828,0,0,1-.105,1.1,5.657,5.657,0,0,1-.319,1.072,5.728,5.728,0,0,1-.525,1.005,6.105,6.105,0,0,1-.745.908l-.194.195Zm-15.089,2.942-4.282-4.287,9.212-9.212a5.9,5.9,0,0,1,.9-.74,5.761,5.761,0,0,1,1.01-.53,5.64,5.64,0,0,1,1.071-.316,5.781,5.781,0,0,1,1.1-.109,5.83,5.83,0,0,1,1.1.109,5.64,5.64,0,0,1,1.071.316,5.752,5.752,0,0,1,1,.53,5.662,5.662,0,0,1,.908.74l1.9,1.9a2.583,2.583,0,0,1,.914-.145,2.262,2.262,0,0,1,2.147,1.578s4.107.912,4.107,2.654c0,.624-.584,1.134-1.071,1.454a1.742,1.742,0,0,0,.525-1.255c0-1.594-4.263-2.5-4.263-2.5a2.354,2.354,0,0,0-2.233-1.765.833.833,0,0,0-.1,0,2.575,2.575,0,0,0-.939.2,2.457,2.457,0,0,0-.632.405,2.314,2.314,0,0,0-.471.573,9.877,9.877,0,0,0-1.053.094c-.37.051-.74.117-1.1.2a10.718,10.718,0,0,0-1.3.386,7.8,7.8,0,0,0-2.631,1.555,5.737,5.737,0,0,0-1.048,1.282,5.915,5.915,0,0,0-.682,1.7Zm13.46-9.22a1.665,1.665,0,0,1,.336-1.005.984.984,0,0,0,.892.573.984.984,0,0,0,.982-.986.94.94,0,0,0-.02-.183,1.677,1.677,0,0,1,1.173,1.6,1.683,1.683,0,0,1-1.68,1.683A1.684,1.684,0,0,1,15517.048-554.027Z" transform="translate(-15085.537 5020.845)" fill="url(#linear-gradient-2)"/>
    <path id="Union_409" data-name="Union 409" d="M15510.408-541.327l-9.411-9.407a5.787,5.787,0,0,1,0-8.18l.2-.195,4.283,4.283,9.018,9.018,3.526-3.528v-.108a23.171,23.171,0,0,1,.249-4.883,5.189,5.189,0,0,1,2.3-3.437,9.9,9.9,0,0,1,1.161-.69s-3.939,3.227-1.96,7.334l.006.022,3.728-3.728,4.286,4.287-9.212,9.212a5.768,5.768,0,0,1-4.09,1.7A5.754,5.754,0,0,1,15510.408-541.327Zm-3.246-11.816a5.051,5.051,0,0,0,2.669-3.511c.6-2.65.822-3.347.822-3.347a7.593,7.593,0,0,0-.184,1.7c0,3.067-2.408,5.67-2.6,5.873Z" transform="translate(-15087.428 5030.861)" fill="url(#linear-gradient-3)"/>
  </g>
</svg>
