<svg width="36" height="36" viewBox="0 0 36 36" fill="none" xmlns="http://www.w3.org/2000/svg">
<path fill-rule="evenodd" clip-rule="evenodd" d="M19.0175 18.0009C19.0175 21.7402 15.9863 24.7714 12.247 24.7714C8.50781 24.7714 5.47656 21.7402 5.47656 18.0009C5.47656 14.2617 8.50781 11.2305 12.247 11.2305C15.9863 11.2305 19.0175 14.2617 19.0175 18.0009ZM26.916 18.0009C26.916 21.7402 25.4004 24.7714 23.5307 24.7714C21.6611 24.7714 20.1455 21.7402 20.1455 18.0009C20.1455 14.2617 21.6611 11.2305 23.5307 11.2305C25.4004 11.2305 26.916 14.2617 26.916 18.0009ZM28.8917 23.6455C29.3591 23.6455 29.738 21.1194 29.738 18.0034C29.738 14.8874 29.3591 12.3613 28.8917 12.3613C28.4243 12.3613 28.0454 14.8874 28.0454 18.0034C28.0454 21.1194 28.4243 23.6455 28.8917 23.6455Z" fill="white"/>
</svg>
