<svg xmlns="http://www.w3.org/2000/svg" xmlns:xlink="http://www.w3.org/1999/xlink" width="47.999" height="47.999" viewBox="0 0 47.999 47.999">
  <defs>
    <linearGradient id="linear-gradient" x1="0.5" x2="0.5" y2="1" gradientUnits="objectBoundingBox">
      <stop offset="0" stop-color="#57fffe"/>
      <stop offset="1" stop-color="#0057bc"/>
    </linearGradient>
  </defs>
  <path id="telegram" d="M0,48V0H48V48Zm.858-.855H47.141V.857H.858Zm28.621-14.48-5.166-3.806-2.494,2.4a1.3,1.3,0,0,1-1.038.506l.37-5.26,9.576-8.651c.416-.373-.092-.577-.649-.208L18.244,25.1l-5.1-1.6c-1.109-.346-1.128-1.11.232-1.641l19.93-7.678c.923-.345,1.73.208,1.429,1.615l-3.389,15.99c-.172.762-.534,1.137-1.04,1.137A1.733,1.733,0,0,1,29.479,32.664Z" fill="url(#linear-gradient)"/>
</svg>
