<svg width="32" height="32" viewBox="0 0 32 32" fill="none" xmlns="http://www.w3.org/2000/svg">
<mask id="mask0_1082_3607" style="mask-type:alpha" maskUnits="userSpaceOnUse" x="0" y="0" width="32" height="32">
<rect width="32" height="32" fill="#D9D9D9"/>
</mask>
<g mask="url(#mask0_1082_3607)">
<path d="M27.4279 14.0051V9.00513C27.4279 8.40513 27.047 8.00513 26.4755 8.00513H21.7136V9.00513C21.7136 9.60513 21.3327 10.0051 20.7613 10.0051C20.1898 10.0051 19.8089 9.60513 19.8089 9.00513V8.00513H12.1898V9.00513C12.1898 9.60513 11.8089 10.0051 11.2374 10.0051C10.666 10.0051 10.2851 9.60513 10.2851 9.00513V8.00513H5.52316C4.95173 8.00513 4.57078 8.40513 4.57078 9.00513V14.0051H27.4279ZM27.4279 16.0051H4.57078V25.0051C4.57078 25.6051 4.95173 26.0051 5.52316 26.0051H26.4755C27.047 26.0051 27.4279 25.6051 27.4279 25.0051V16.0051ZM21.7136 6.00513H26.4755C28.0946 6.00513 29.3327 7.30513 29.3327 9.00513V25.0051C29.3327 26.7051 28.0946 28.0051 26.4755 28.0051H5.52316C3.90411 28.0051 2.66602 26.7051 2.66602 25.0051V9.00513C2.66602 7.30513 3.90411 6.00513 5.52316 6.00513H10.2851V5.00513C10.2851 4.40513 10.666 4.00513 11.2374 4.00513C11.8089 4.00513 12.1898 4.40513 12.1898 5.00513V6.00513H19.8089V5.00513C19.8089 4.40513 20.1898 4.00513 20.7613 4.00513C21.3327 4.00513 21.7136 4.40513 21.7136 5.00513V6.00513Z" fill="#C2111F"/>
</g>
</svg>
