<svg width="36" height="36" viewBox="0 0 36 36" fill="none" xmlns="http://www.w3.org/2000/svg">
<circle cx="18" cy="18" r="18" fill="black" fill-opacity="0.2"/>
<path fill-rule="evenodd" clip-rule="evenodd" d="M25.3898 10.3195C24.9654 9.89512 24.2774 9.89512 23.853 10.3195L17.704 16.4685L11.5563 10.3207C11.1319 9.89632 10.4438 9.89632 10.0195 10.3207C9.59508 10.7451 9.59508 11.4332 10.0195 11.8575L16.1672 18.0053L10.0215 24.151C9.59712 24.5754 9.59712 25.2634 10.0215 25.6878C10.4459 26.1122 11.134 26.1122 11.5583 25.6878L17.704 19.5421L23.851 25.689C24.2753 26.1134 24.9634 26.1134 25.3878 25.689C25.8122 25.2646 25.8122 24.5766 25.3878 24.1522L19.2409 18.0053L25.3898 11.8563C25.8142 11.432 25.8142 10.7439 25.3898 10.3195Z" fill="white"/>
</svg>
