<svg width="36" height="36" viewBox="0 0 36 36" fill="none" xmlns="http://www.w3.org/2000/svg">
<g id="Group 1533208961">
<circle id="Ellipse 771" cx="18" cy="18" r="18" fill="black" fill-opacity="0.2"/>
<path id="Union" fill-rule="evenodd" clip-rule="evenodd" d="M25.3879 10.3183C24.9635 9.8939 24.2754 9.8939 23.851 10.3183L17.7021 16.4672L11.5543 10.3195C11.13 9.8951 10.4419 9.8951 10.0175 10.3195C9.59312 10.7439 9.59312 11.4319 10.0175 11.8563L16.1653 18.0041L10.0195 24.1498C9.59517 24.5742 9.59517 25.2622 10.0195 25.6866C10.4439 26.111 11.132 26.111 11.5564 25.6866L17.7021 19.5409L23.849 25.6878C24.2734 26.1122 24.9614 26.1122 25.3858 25.6878C25.8102 25.2634 25.8102 24.5754 25.3858 24.151L19.2389 18.0041L25.3879 11.8551C25.8123 11.4307 25.8123 10.7427 25.3879 10.3183Z" fill="white"/>
</g>
</svg>
