<svg xmlns="http://www.w3.org/2000/svg" width="16" height="18" viewBox="0 0 16 18">
  <path id="support-icon" d="M13217.771,10291.672a8.115,8.115,0,0,1-1.218-1.979,2.766,2.766,0,0,1-1.553-2.619v-1.384a.752.752,0,0,1,.006-.1v-1.98a7.678,7.678,0,0,1,7.648-7.614c2.78,0,3.476,1.384,3.476,1.384,2.784,0,4.175,3.46,4.175,6.23v1.57a1.376,1.376,0,0,1,.7,1.2v.691a1.379,1.379,0,0,1-.732,1.219,3.48,3.48,0,0,1-3.442,2.939h-3.477a.674.674,0,0,1-.172-.021,1.015,1.015,0,0,1-.173.015h-.7a1.038,1.038,0,1,1,0-2.075h.7a1.04,1.04,0,0,1,.978.685h2.844a2.083,2.083,0,0,0,1.962-1.376h-.568v-2.076c0-4.32-2.089-6.231-2.089-6.231-2.085,4.847-9.038,1.387-9.038,6.231h-.688v.691a1.325,1.325,0,0,0,.858,1.4l.373.093.122.36a6.488,6.488,0,0,0,1.118,1.888,4.786,4.786,0,0,0,3.779,1.79c.022,0,.045,0,.067,0h3.844a6.111,6.111,0,0,1-3.839,1.387.587.587,0,0,1-.072,0A6.212,6.212,0,0,1,13217.771,10291.672Z" transform="translate(-13215 -10276)" fill="#fff"/>
</svg>
