<svg xmlns="http://www.w3.org/2000/svg" width="40" height="40" viewBox="0 0 40 40">
  <g id="profile-image" transform="translate(-18489 3204)">
    <circle id="Ellipse_3990" data-name="Ellipse 3990" cx="20" cy="20" r="20" transform="translate(18489 -3204)" fill="#757384"/>
    <g id="spartan" transform="translate(18500.613 -3197.152)">
      <path id="Path_37578" data-name="Path 37578" d="M96.061,93.2l-.289,3.452a1.557,1.557,0,0,1-1.543,1.452H90.855a1.556,1.556,0,0,1-1.542-1.449L89.023,93.2a7.346,7.346,0,0,0-4.868,6.962v9.46l6.383,4.029.092-5.733-2.565-2.84v-4.523l2.932,2,1.546,2.358,1.546-2.358,2.932-2v4.523l-2.565,2.84.092,5.733,6.383-4.029v-9.46A7.346,7.346,0,0,0,96.061,93.2Z" transform="translate(-84.155 -88.64)" fill="#d7d3ed"/>
      <path id="Path_37579" data-name="Path 37579" d="M206.865,8c-.039,0-.074-.048-.079-.106L206.137.134a.151.151,0,0,1,.029-.106.068.068,0,0,1,.05-.029h4.673a.068.068,0,0,1,.05.029.151.151,0,0,1,.029.106l-.649,7.758c-.005.058-.041.106-.079.106h-3.374Z" transform="translate(-200.165 0)" fill="#d7d3ed"/>
    </g>
  </g>
</svg>
