<svg xmlns="http://www.w3.org/2000/svg" width="14" height="14" viewBox="0 0 14 14">
  <g id="beta" transform="translate(-843.25 -25)">
    <rect id="Rectangle_14869" data-name="Rectangle 14869" width="14" height="14" rx="2" transform="translate(843.25 25)" fill="#ffeb00"/>
    <path id="Union_665" data-name="Union 665" d="M0,10.37V3.192a3.962,3.962,0,0,1,.239-1.48A2.532,2.532,0,0,1,1.882.166,3.689,3.689,0,0,1,2.979,0,3.1,3.1,0,0,1,4.237.26a2.384,2.384,0,0,1,.955.77,2,2,0,0,1,.368,1.209,2.163,2.163,0,0,1-.194.951,2.006,2.006,0,0,1-.5.647,2.333,2.333,0,0,1-.564.351s0,0,.006,0a2.874,2.874,0,0,1,.756.456,2.273,2.273,0,0,1,.608.78A2.53,2.53,0,0,1,5.91,6.562a2.975,2.975,0,0,1-.2,1.069,3.058,3.058,0,0,1-.591.978,2.9,2.9,0,0,1-.952.707,2.948,2.948,0,0,1-1.273.27,2.435,2.435,0,0,1-.709-.1A2.6,2.6,0,0,1,1.6,9.238L1.542,9.2V10.37A.771.771,0,1,1,0,10.37Zm2.236-9.1a1.536,1.536,0,0,0-.5.728,4.338,4.338,0,0,0-.194,1.448V8.219a1.642,1.642,0,0,0,.269.1,3.213,3.213,0,0,0,.476.085,3.521,3.521,0,0,0,.376.03,1.356,1.356,0,0,0,.884-.277,1.768,1.768,0,0,0,.541-.739,2.538,2.538,0,0,0,.186-.942,2.669,2.669,0,0,0-.121-.828,1.038,1.038,0,0,0-.4-.55,1.514,1.514,0,0,0-.874-.209H2.647a.6.6,0,1,1,0-1.2h.074a1.943,1.943,0,0,0,.632-.109A.944.944,0,0,0,3.827,3.2a1.468,1.468,0,0,0,.194-.827,1.453,1.453,0,0,0-.3-1,1.019,1.019,0,0,0-.795-.322A1.147,1.147,0,0,0,2.236,1.271Z" transform="translate(847.17 26.552)"/>
  </g>
</svg>
