<svg xmlns="http://www.w3.org/2000/svg" width="22" height="22" viewBox="0 0 22 22">
  <g id="bnb" transform="translate(-909.06 -73.06)">
    <circle id="Ellipse_3937" data-name="Ellipse 3937" cx="11" cy="11" r="11" transform="translate(909.06 73.06)" fill="#f0b90b"/>
    <g id="bnb-2" data-name="bnb" transform="translate(913.269 76.175)">
      <path id="Path_30000" data-name="Path 30000" d="M2.692,2.472,6.974,0l4.282,2.472-1.574.913L6.974,1.826,4.266,3.385Zm8.564,3.117L9.682,4.676,6.974,6.234,4.266,4.676l-1.574.913V7.415L5.4,8.974v3.117L6.974,13l1.574-.913V8.974l2.708-1.559Zm0,4.943V8.706l-1.574.913v1.826Zm1.118.645L9.666,12.736v1.826l4.282-2.472V7.147l-1.574.913ZM10.8,4.03l1.574.913V6.77l1.574-.913V4.03l-1.574-.913ZM5.4,13.4v1.826l1.574.913,1.574-.913V13.4l-1.574.913ZM2.692,10.532l1.574.913V9.619L2.692,8.706ZM5.4,4.03l1.574.913L8.549,4.03,6.974,3.117Zm-3.826.913L3.149,4.03,1.574,3.117,0,4.03V5.856l1.574.913Zm0,3.117L0,7.147v4.943l4.282,2.472V12.736L1.574,11.178Z" fill="#fff"/>
    </g>
  </g>
</svg>
