<?xml version="1.0" encoding="UTF-8"?>
<svg width="500px" height="500px" viewBox="0 0 500 500" version="1.1" xmlns="http://www.w3.org/2000/svg" xmlns:xlink="http://www.w3.org/1999/xlink">
    <title>logowithcolor</title>
    <defs>
        <linearGradient x1="50%" y1="0%" x2="50%" y2="99.5124017%" id="linearGradient-1">
            <stop stop-color="#C2111F" offset="0%"></stop>
            <stop stop-color="#9E2019" offset="100%"></stop>
        </linearGradient>
    </defs>
    <g id="page-1" stroke="none" stroke-width="1" fill="none" fill-rule="evenodd">
        <g id="logowithcolor">
            <circle id="circle" cx="250" cy="250" r="250"></circle>
            <path d="M249.999,385.599 L250.439224,386.233603 C265.023016,407.10831 284.8875,418.66651 310.032677,420.908201 C298.417651,425.843732 261.3796,442.937812 251.023277,499.989565 L250,500 C249.65741,500 249.314981,499.999311 248.972714,499.997934 C238.6204,442.937812 201.582349,425.843732 189.967323,420.908201 C215.366491,418.643867 235.377748,406.873861 249.999161,385.59913 L249.999,385.599 Z M250,0 C388.071187,0 500,111.928813 500,250 C500,377.191109 405.016256,482.197576 282.111264,497.956904 C287.653561,472.989922 301.380274,455.615842 323.290916,445.831703 C372.347228,423.925736 408.63619,417.399071 423.373663,352.731047 C438.111136,288.063022 369.851479,228.318546 378.680472,191.442148 C386.115699,188.867187 393.766524,192.468672 401.632949,202.246604 L404.564479,120.715388 C383.21791,131.533604 369.627958,152.213679 363.794622,182.755613 C357.368149,227.187749 382.686989,244.042357 384.466663,298.386702 C386.246337,352.731047 361.171178,380.85287 324.273041,389.916089 C287.374905,398.979307 267.004458,360.819987 267.004458,348.67402 C267.004458,345.03023 266.591366,334.048839 265.765182,315.729848 L265.652576,313.243834 C264.636267,290.89995 263.046933,258.377636 260.884574,215.676893 L253.890322,71.7653187 L270.513082,79.0379832 L250.000161,21.7451304 L229.486918,79.0379832 L246.109678,71.7653187 L239.115426,215.676893 C236.953067,258.377636 235.363733,290.89995 234.347424,313.243834 L234.234818,315.729848 C233.408634,334.048839 232.995542,345.03023 232.995542,348.67402 C232.995542,360.819987 212.625095,398.979307 175.726959,389.916089 C138.828822,380.85287 113.753663,352.731047 115.533337,298.386702 C117.313011,244.042357 142.631851,227.187749 136.205378,182.755613 C130.372042,152.213679 116.78209,131.533604 95.435521,120.715388 L98.3670514,202.246604 C106.233476,192.468672 113.884301,188.867187 121.319528,191.442148 C130.148521,228.318546 61.8888643,288.063022 76.6263373,352.731047 C91.3638103,417.399071 127.652772,423.925736 176.709084,445.831703 C198.619726,455.615842 212.346439,472.989922 217.88922,497.953941 C94.9837441,482.197576 0,377.191109 0,250 C0,111.928813 111.928813,0 250,0 Z" id="stripegroup" fill="url(#linearGradient-1)"></path>
        </g>
    </g>
</svg>
