<svg xmlns="http://www.w3.org/2000/svg" width="20" height="20" viewBox="0 0 20 20">
  <g id="opbnb" transform="translate(-909.06 -73.291)">
    <path id="Path_38188" data-name="Path 38188" d="M10,0A10,10,0,1,1,0,10,10,10,0,0,1,10,0Z" transform="translate(909.06 73.291)" fill="#342e19"/>
    <g id="bnb" transform="translate(912.931 75.925)">
      <path id="Path_30000" data-name="Path 30000" d="M2.476,2.273,6.413,0l3.938,2.273L8.9,3.113,6.413,1.679,3.923,3.113Zm7.876,2.867L8.9,4.3,6.413,5.733,3.923,4.3l-1.448.84V6.819l2.49,1.433v2.867l1.448.84,1.448-.84V8.252l2.49-1.433Zm0,4.546V8.006L8.9,8.846v1.679Zm1.028.594-2.49,1.433v1.679l3.938-2.273V6.573l-1.448.84ZM9.931,3.706l1.448.84V6.225l1.448-.84V3.706l-1.448-.84ZM4.966,12.32V14l1.448.84L7.861,14V12.32l-1.448.84ZM2.476,9.685l1.448.84V8.846l-1.448-.84Zm2.49-5.979,1.448.84,1.448-.84-1.448-.84Zm-3.518.84L2.9,3.706l-1.448-.84L0,3.706V5.386l1.448.84Zm0,2.867L0,6.573v4.546l3.938,2.273V11.712l-2.49-1.433Z" fill="#f0b90b"/>
    </g>
  </g>
</svg>
