<svg xmlns="http://www.w3.org/2000/svg" xmlns:xlink="http://www.w3.org/1999/xlink" width="24" height="24" viewBox="0 0 24 24">
  <defs>
    <linearGradient id="linear-gradient" x2="1" y2="1" gradientUnits="objectBoundingBox">
      <stop offset="0" stop-color="#39d1ff"/>
      <stop offset="1" stop-color="#3149ff"/>
    </linearGradient>
  </defs>
  <g id="add-image" transform="translate(-0.4)">
    <rect id="Rectangle_14301" data-name="Rectangle 14301" width="24" height="24" transform="translate(0.4)" fill="none"/>
    <g id="_01" data-name="01" transform="translate(1.804 1.804)">
      <path id="Path_36968" data-name="Path 36968" d="M11.559,8.118A2.422,2.422,0,1,1,9.137,5.7,2.422,2.422,0,0,1,11.559,8.118Zm10.833-.194v8.544c0,3.711-2.213,5.924-5.924,5.924H7.924c-2.6,0-4.476-1.091-5.353-3.028a5.844,5.844,0,0,1-.316-.9c-.01-.042-.021-.083-.032-.124A7.66,7.66,0,0,1,2,16.468V7.924C2,4.213,4.213,2,7.924,2h8.544c3.711,0,5.924,2.213,5.924,5.924Zm-1.529,0c0-2.875-1.519-4.394-4.394-4.394H7.924c-2.875,0-4.394,1.519-4.394,4.394v8.544a5.517,5.517,0,0,0,.353,2.01L7.7,15.917a2.264,2.264,0,0,1,2.692.143l.347.285a2.273,2.273,0,0,0,2.875,0l4.241-3.64a2.273,2.273,0,0,1,2.875,0l.133.114Z" transform="translate(-2 -2)" fill="url(#linear-gradient)"/>
    </g>
  </g>
</svg>
