<svg xmlns="http://www.w3.org/2000/svg" xmlns:xlink="http://www.w3.org/1999/xlink" width="23.998" height="23.998" viewBox="0 0 23.998 23.998">
  <defs>
    <linearGradient id="linear-gradient" x1="0.5" x2="0.5" y2="1" gradientUnits="objectBoundingBox">
      <stop offset="0" stop-color="#39d1ff"/>
      <stop offset="1" stop-color="#3149ff"/>
    </linearGradient>
  </defs>
  <path id="add-liquidity" d="M21825-17269.406a4.612,4.612,0,0,1,1.014-2.8,4.6,4.6,0,0,1-1.014-2.8,4.589,4.589,0,0,1,1.008-2.791,4.629,4.629,0,0,1-1.008-2.807c0-3.59,4.447-6.4,10.127-6.4s10.145,2.809,10.145,6.4a4.61,4.61,0,0,1-1.033,2.807,4.6,4.6,0,0,1,.652,1.121,7.167,7.167,0,0,1,3.5,9.367,7.174,7.174,0,0,1-9.262,3.773,15.721,15.721,0,0,1-4,.531C21829.447-17263,21825-17265.814,21825-17269.406Zm16.748-6.393-.025.006a5.591,5.591,0,0,0-5.414,4.5,5.587,5.587,0,0,0,3.273,6.227l.025.016a5.525,5.525,0,0,0,2.189.449,5.6,5.6,0,0,0,5.6-5.6,5.6,5.6,0,0,0-5.6-5.6C21841.783-17275.8,21841.77-17275.8,21841.748-17275.8Zm-15.15,6.393c0,2.6,3.908,4.8,8.529,4.8a14.291,14.291,0,0,0,2.025-.145,7.218,7.218,0,0,1-2.365-3.869,12.738,12.738,0,0,1-7.646-2.434A3.038,3.038,0,0,0,21826.6-17269.406Zm0-5.6a3.222,3.222,0,0,0,1.025,2.242,10.479,10.479,0,0,0,6.979,2.535,7.146,7.146,0,0,1,1.236-4.008c-.238.01-.461.031-.711.031a12.861,12.861,0,0,1-7.992-2.436A3,3,0,0,0,21826.6-17275Zm0-5.6c0,2.6,3.908,4.8,8.529,4.8a13.077,13.077,0,0,0,2.471-.221,7.188,7.188,0,0,1,3.754-1.332,6.4,6.4,0,0,0,1.277-1,3.223,3.223,0,0,0,1.041-2.244c0-2.6-3.91-4.8-8.543-4.8S21826.6-17283.205,21826.6-17280.6Zm14.391,12.8v-1.6h-1.609a.8.8,0,0,1-.8-.8.8.8,0,0,1,.8-.8h1.609v-1.609a.8.8,0,0,1,.8-.8.8.8,0,0,1,.8.8v1.609h1.609a.8.8,0,0,1,.8.8.8.8,0,0,1-.8.8h-1.609v1.6a.8.8,0,0,1-.8.8A.8.8,0,0,1,21840.988-17267.8Z" transform="translate(-21825 17287)" fill="url(#linear-gradient)"/>
</svg>
