<svg xmlns="http://www.w3.org/2000/svg" xmlns:xlink="http://www.w3.org/1999/xlink" width="18" height="23.997" viewBox="0 0 18 23.997">
  <defs>
    <linearGradient id="linear-gradient" x2="1" y2="1" gradientUnits="objectBoundingBox">
      <stop offset="0" stop-color="#39d1ff"/>
      <stop offset="1" stop-color="#3149ff"/>
    </linearGradient>
  </defs>
  <path id="audio-icon" d="M11492.1-10961a.822.822,0,0,1-.829-.812.82.82,0,0,1,.829-.812h3.072v-2.188a8.908,8.908,0,0,1-8.172-8.792.821.821,0,0,1,.829-.814.822.822,0,0,1,.828.814,7.281,7.281,0,0,0,7.343,7.2,7.281,7.281,0,0,0,7.343-7.2.822.822,0,0,1,.829-.814.822.822,0,0,1,.828.814,8.908,8.908,0,0,1-8.171,8.792v2.188h3.072a.819.819,0,0,1,.828.812.821.821,0,0,1-.828.812Zm-1.4-12.6v-6.19a5.259,5.259,0,0,1,5.3-5.2,5.261,5.261,0,0,1,5.3,5.2v6.19a5.261,5.261,0,0,1-5.3,5.2A5.259,5.259,0,0,1,11490.7-10973.606Zm1.654-6.19v6.19a3.617,3.617,0,0,0,3.646,3.577,3.616,3.616,0,0,0,3.645-3.577v-6.19a3.616,3.616,0,0,0-3.645-3.578A3.618,3.618,0,0,0,11492.353-10979.8Z" transform="translate(-11486.999 10985)" fill="url(#linear-gradient)"/>
</svg>
