<svg xmlns="http://www.w3.org/2000/svg" xmlns:xlink="http://www.w3.org/1999/xlink" width="20" height="20" viewBox="0 0 20 20">
  <defs>
    <linearGradient id="linear-gradient" x1="0.5" x2="0.5" y2="1" gradientUnits="objectBoundingBox">
      <stop offset="0" stop-color="#39d1ff"/>
      <stop offset="1" stop-color="#3149ff"/>
    </linearGradient>
  </defs>
  <g id="bookmarks" transform="translate(-0.002)">
    <rect id="Rectangle_14090" data-name="Rectangle 14090" width="20" height="20" transform="translate(0.002)" fill="none"/>
    <path id="Subtraction_493" data-name="Subtraction 493" d="M16.074,19.088a.722.722,0,0,1-.377-.107l-7.3-4.566L1.087,18.981a.687.687,0,0,1-.375.107A.71.71,0,0,1,0,18.378V2.631A2.634,2.634,0,0,1,2.633,0H14.154a2.633,2.633,0,0,1,2.63,2.631V18.378a.71.71,0,0,1-.367.621A.7.7,0,0,1,16.074,19.088ZM8.394,12.871a.712.712,0,0,1,.375.107L15.362,17.1V2.631A1.211,1.211,0,0,0,14.154,1.42H2.633A1.212,1.212,0,0,0,1.422,2.631V17.1l6.595-4.122A.725.725,0,0,1,8.394,12.871Z" transform="translate(1.691 0.793)" fill="url(#linear-gradient)"/>
  </g>
</svg>
 