<svg xmlns="http://www.w3.org/2000/svg" xmlns:xlink="http://www.w3.org/1999/xlink" width="20" height="20" viewBox="0 0 20 20">
  <defs>
    <linearGradient id="linear-gradient" x1="0.5" x2="0.5" y2="1" gradientUnits="objectBoundingBox">
      <stop offset="0" stop-color="#39d1ff"/>
      <stop offset="1" stop-color="#3149ff"/>
    </linearGradient>
  </defs>
  <g id="bookmark" transform="translate(-523 -720)">
    <rect id="Rectangle_15973" data-name="Rectangle 15973" width="20" height="20" transform="translate(523 720)" fill="none"/>
    <path id="Subtraction_554" data-name="Subtraction 554" d="M24169.572-17268.412a.72.72,0,0,1-.377-.1l-7.3-4.566-7.3,4.566a.718.718,0,0,1-.375.1.73.73,0,0,1-.346-.084.721.721,0,0,1-.365-.625v-14.746a2.634,2.634,0,0,1,2.627-2.633h11.525a2.634,2.634,0,0,1,2.627,2.633v14.746a.7.7,0,0,1-.363.619A.68.68,0,0,1,24169.572-17268.412Z" transform="translate(-23628.891 18007.457)" fill="url(#linear-gradient)"/>
  </g>
</svg>
