<svg xmlns="http://www.w3.org/2000/svg" xmlns:xlink="http://www.w3.org/1999/xlink" width="24" height="28" viewBox="0 0 24 28">
  <defs>
    <linearGradient id="linear-gradient" x1="0.5" x2="0.5" y2="1" gradientUnits="objectBoundingBox">
      <stop offset="0" stop-color="#39d1ff"/>
      <stop offset="1" stop-color="#3149ff"/>
    </linearGradient>
  </defs>
  <path id="bribe" d="M21830.482-17259a5.5,5.5,0,0,1-5.482-5.5,16.489,16.489,0,0,1,1.381-6.578,20.03,20.03,0,0,1,3.008-4.846,22.743,22.743,0,0,1,3.7-3.555l-3.094-4.7a.83.83,0,0,1,.094-1.023,4.775,4.775,0,0,1,3.553-1.666,10.3,10.3,0,0,1,3.479.818.729.729,0,0,0,.287.051,3.937,3.937,0,0,0,1.3-.389l.053-.021a5.836,5.836,0,0,1,2.279-.6,3.541,3.541,0,0,1,2.549,1.146.812.812,0,0,1,.15.969l-2.877,5.361a22.364,22.364,0,0,1,3.758,3.6,19.829,19.829,0,0,1,3.01,4.846,16.549,16.549,0,0,1,1.375,6.578,5.492,5.492,0,0,1-5.475,5.5Zm.129-15.838a16.028,16.028,0,0,0-3.975,10.34,3.854,3.854,0,0,0,3.846,3.854h13.043a3.779,3.779,0,0,0,2.717-1.135,3.829,3.829,0,0,0,1.111-2.719,16.005,16.005,0,0,0-3.975-10.34,20.45,20.45,0,0,0-3.844-3.621h-5.078A20.714,20.714,0,0,0,21830.611-17274.838Zm1.127-9.666,2.9,4.4h4.662l2.664-4.975a1.629,1.629,0,0,0-.941-.293,4.575,4.575,0,0,0-1.643.473,5.2,5.2,0,0,1-1.986.535,2.4,2.4,0,0,1-.844-.146,8.79,8.79,0,0,0-2.916-.723A2.855,2.855,0,0,0,21831.738-17284.5Zm4.592,20.887v-.857h-1.23a.818.818,0,0,1-.816-.82.82.82,0,0,1,.816-.822h2.834a.913.913,0,0,0,.91-.914.912.912,0,0,0-.91-.916h-1.58a2.557,2.557,0,0,1-2.551-2.557,2.558,2.558,0,0,1,2.516-2.557v-.834a.823.823,0,0,1,.822-.82.819.819,0,0,1,.816.82v.834h1.178a.816.816,0,0,1,.816.818.821.821,0,0,1-.816.824h-2.781a.915.915,0,0,0-.912.914.911.911,0,0,0,.912.912h1.58a2.559,2.559,0,0,1,2.549,2.561,2.565,2.565,0,0,1-2.516,2.557h-.006v.857a.818.818,0,0,1-.814.82A.817.817,0,0,1,21836.33-17263.617Z" transform="translate(-21825 17287)" fill="url(#linear-gradient)"/>
</svg>
