<svg xmlns="http://www.w3.org/2000/svg" xmlns:xlink="http://www.w3.org/1999/xlink" width="20" height="20" viewBox="0 0 20 20">
  <defs>
    <linearGradient id="linear-gradient" x2="1" y2="1" gradientUnits="objectBoundingBox">
      <stop offset="0" stop-color="#39d1ff"/>
      <stop offset="1" stop-color="#3149ff"/>
    </linearGradient>
  </defs>
  <g id="comment" transform="translate(-419 -426)">
    <rect id="Rectangle_15972" data-name="Rectangle 15972" width="20" height="20" transform="translate(419 426)" fill="none"/>
    <path id="Path_30191" data-name="Path 30191" d="M9.991,1A8.987,8.987,0,0,0,2.118,14.331L1.034,17.947A.818.818,0,0,0,1.817,19a.832.832,0,0,0,.235-.034l3.613-1.085A9,9,0,1,0,9.991,1Zm0,16.364a7.323,7.323,0,0,1-3.8-1.069.823.823,0,0,0-.424-.118.8.8,0,0,0-.235.034l-2.5.75.749-2.5a.819.819,0,0,0-.082-.655,7.347,7.347,0,1,1,6.287,3.556Z" transform="translate(419 426)" fill="url(#linear-gradient)"/>
  </g>
</svg>
