<svg xmlns="http://www.w3.org/2000/svg" width="24" height="24" viewBox="0 0 24 24">
  <g id="copy-address" transform="translate(-542.18 -150)">
    <circle id="Ellipse_176" data-name="Ellipse 176" cx="12" cy="12" r="12" transform="translate(542.18 150)" fill="#090333"/>
    <path id="copy" d="M9.635,10.914h-5.8A1.28,1.28,0,0,1,2.558,9.635v-5.8A1.28,1.28,0,0,1,3.837,2.558h5.8a1.28,1.28,0,0,1,1.279,1.279v5.8A1.28,1.28,0,0,1,9.635,10.914Zm-5.8-7.5a.427.427,0,0,0-.426.426v5.8a.427.427,0,0,0,.426.426h5.8a.427.427,0,0,0,.426-.426v-5.8a.427.427,0,0,0-.426-.426ZM1.705,7.5H1.279a.427.427,0,0,1-.426-.426v-5.8A.427.427,0,0,1,1.279.853h5.8a.427.427,0,0,1,.426.426v.4h.853v-.4A1.28,1.28,0,0,0,7.077,0h-5.8A1.28,1.28,0,0,0,0,1.279v5.8A1.28,1.28,0,0,0,1.279,8.356h.426Zm0,0" transform="translate(548.723 156.543)" fill="#fff"/>
  </g>
</svg>
