<svg xmlns="http://www.w3.org/2000/svg" xmlns:xlink="http://www.w3.org/1999/xlink" width="24" height="24" viewBox="0 0 24 24">
  <defs>
    <linearGradient id="linear-gradient" x1="0.026" y1="0.036" x2="0.965" y2="1" gradientUnits="objectBoundingBox">
      <stop offset="0" stop-color="#39d1ff"/>
      <stop offset="1" stop-color="#3149ff"/>
    </linearGradient>
  </defs>
  <g id="fee" transform="translate(-880 -704)">
    <path id="Union_655" data-name="Union 655" d="M3607,6651a11,11,0,1,1,11,11A11.012,11.012,0,0,1,3607,6651Zm4.611-6.391a9.052,9.052,0,1,0,6.389-2.642A8.976,8.976,0,0,0,3611.61,6644.61Zm5.894,12.256a.986.986,0,0,1-.484-.869v-.379a2.544,2.544,0,0,1-2.145-2.465.982.982,0,0,1,.984-1,1,1,0,0,1,.5.134.985.985,0,0,1,.484.867c0,.409.585.625,1.161.625s1.159-.216,1.159-.627c0-.459-.091-.552-.285-.7a4.751,4.751,0,0,0-1.184-.512l-.1-.032a5.3,5.3,0,0,1-1.67-.8,2.815,2.815,0,0,1-1.049-2.251,2.541,2.541,0,0,1,2.145-2.466V6646a.984.984,0,0,1,.965-.992H3618a.982.982,0,0,1,.983,1v.384a2.543,2.543,0,0,1,2.146,2.464.985.985,0,0,1-1.97,0c0-.411-.583-.626-1.159-.626s-1.161.215-1.161.626c0,.458.094.552.287.7a4.65,4.65,0,0,0,1.184.512l.091.03a5.334,5.334,0,0,1,1.677.8,2.852,2.852,0,0,1,1.05,2.251,2.544,2.544,0,0,1-2.146,2.467V6656a.985.985,0,0,1-1.482.869Z" transform="translate(-2726 -5935)" fill="url(#linear-gradient)"/>
    <rect id="Rectangle_14064" data-name="Rectangle 14064" width="24" height="24" transform="translate(880 704)" fill="none"/>
  </g>
</svg>
