<svg xmlns="http://www.w3.org/2000/svg" xmlns:xlink="http://www.w3.org/1999/xlink" width="24" height="24" viewBox="0 0 24 24">
  <defs>
    <linearGradient id="linear-gradient" x2="1" y2="1" gradientUnits="objectBoundingBox">
      <stop offset="0" stop-color="#39d1ff"/>
      <stop offset="1" stop-color="#3149ff"/>
    </linearGradient>
  </defs>
  <g id="hourglass" transform="translate(-829 -414)">
    <g id="Group_26015" data-name="Group 26015">
      <rect id="Rectangle_14063" data-name="Rectangle 14063" width="24" height="24" transform="translate(829 414)" fill="none"/>
      <path id="Union_681" data-name="Union 681" d="M11500.007-10968h-12.24a.768.768,0,0,1-.766-.769.77.77,0,0,1,.766-.771h.765v-3.077h0c0-2.744,2.2-4.29,4.332-5.384-2.129-1.094-4.327-2.639-4.332-5.383h0v-3.08h-.765a.766.766,0,0,1-.766-.767.768.768,0,0,1,.766-.771h13.767a.768.768,0,0,1,.768.771.766.766,0,0,1-.768.767h-.762v3.08h0c0,2.9-2.595,4.477-4.382,5.383,1.787.908,4.377,2.479,4.382,5.384h0v3.077h.762a.77.77,0,0,1,.768.771.768.768,0,0,1-.768.769Zm-.766-1.539v-3.075c0-2.107-2.121-3.322-4.108-4.294-.164-.08-.333-.162-.507-.243-2.2,1.036-4.562,2.247-4.566,4.537v3.075Zm-4.615-9.312c.174-.08.344-.161.507-.241,1.987-.974,4.1-2.187,4.108-4.292v-3.079h-9.182v3.079C11490.063-10981.1,11492.425-10979.887,11494.626-10978.851Z" transform="translate(-10653.652 11404)" fill="url(#linear-gradient)"/>
    </g>
  </g>
</svg>
