<svg xmlns="http://www.w3.org/2000/svg" xmlns:xlink="http://www.w3.org/1999/xlink" width="20" height="20" viewBox="0 0 20 20">
  <defs>
    <linearGradient id="linear-gradient" x1="0.5" x2="0.5" y2="1" gradientUnits="objectBoundingBox">
      <stop offset="0" stop-color="#39d1ff"/>
      <stop offset="1" stop-color="#3149ff"/>
    </linearGradient>
  </defs>
  <g id="like-active" transform="translate(-325 -720)">
    <rect id="Rectangle_15976" data-name="Rectangle 15976" width="20" height="20" transform="translate(325 720)" fill="none"/>
    <path id="Union_768" data-name="Union 768" d="M24163.924-17268.84c-.176.006-.363.006-.545.006a40.376,40.376,0,0,1-4.527-.273v-10.623a19.377,19.377,0,0,0,2.664-5,2.651,2.651,0,0,1,.369-1.877,1.139,1.139,0,0,1,.887-.395,2.634,2.634,0,0,1,2.094,1c.631.861.674,2.141.123,3.793a8.1,8.1,0,0,0-.455,1.852c.121-.023.242-.043.346-.061l.023-.006a12.369,12.369,0,0,1,1.875-.238c.15-.006.3-.006.455-.006a4.039,4.039,0,0,1,2.73.777,2.16,2.16,0,0,1,.57,2.4,2.411,2.411,0,0,1,.467,1.3,2.3,2.3,0,0,1-.5,1.523,2.782,2.782,0,0,1,.133.7,2.553,2.553,0,0,1-.85,2.021,2.442,2.442,0,0,1-.291,1.443,3.477,3.477,0,0,1-2.494,1.537,8.943,8.943,0,0,1-1.8.164h-.187C24164.682-17268.8,24164.326-17268.809,24163.924-17268.84Zm-10.922-1.84v-6.059a1.76,1.76,0,0,1,1.77-1.748h2.309a1.745,1.745,0,0,1,.352.035v9.471a1.623,1.623,0,0,1-.352.049h-2.318A1.76,1.76,0,0,1,24153-17270.68Z" transform="translate(-23826.953 18007.922)" fill="url(#linear-gradient)"/>
  </g>
</svg>
