<svg id="like" xmlns="http://www.w3.org/2000/svg" xmlns:xlink="http://www.w3.org/1999/xlink" width="20" height="20" viewBox="0 0 20 20">
  <defs>
    <linearGradient id="linear-gradient" x1="0.5" x2="0.5" y2="1" gradientUnits="objectBoundingBox">
      <stop offset="0" stop-color="#39d1ff"/>
      <stop offset="1" stop-color="#3149ff"/>
    </linearGradient>
  </defs>
  <rect id="Rectangle_14299" data-name="Rectangle 14299" width="20" height="20" fill="none"/>
  <g id="like-2" data-name="like" transform="translate(1.251 1)">
    <path id="Path_37527" data-name="Path 37527" d="M23.647,12.237a2.236,2.236,0,0,0,.523-1.494,2.3,2.3,0,0,0-.489-1.295A2.012,2.012,0,0,0,23.2,7.133a4.157,4.157,0,0,0-3.023-.723,11.813,11.813,0,0,0-1.852.237h0c-.188.034-.388.075-.591.12A6.567,6.567,0,0,1,18.2,4.581c.527-1.6.5-2.831-.1-3.651A2.393,2.393,0,0,0,16.191,0a.945.945,0,0,0-.726.331,2.532,2.532,0,0,0-.316,1.8c-.5,1.332-1.89,4.6-3.068,5.507a.4.4,0,0,0-.06.053,4.044,4.044,0,0,0-.738,1.107,1.553,1.553,0,0,0-.745-.188h-2.3a1.567,1.567,0,0,0-1.566,1.566v6.117a1.567,1.567,0,0,0,1.566,1.566h2.3a1.563,1.563,0,0,0,.9-.286l.885.105a37.9,37.9,0,0,0,5.018.275c.448.034.87.053,1.261.053a8.446,8.446,0,0,0,1.75-.158,3.273,3.273,0,0,0,2.338-1.453,2.3,2.3,0,0,0,.256-1.442,2.4,2.4,0,0,0,.854-1.954A2.543,2.543,0,0,0,23.647,12.237Zm-15.407,4.6a.55.55,0,0,1-.55-.55v-6.12a.55.55,0,0,1,.55-.55h2.3a.55.55,0,0,1,.55.55v6.117a.55.55,0,0,1-.55.55h-2.3ZM22.684,11.8a.506.506,0,0,0-.068.614,1.566,1.566,0,0,1,.173.629,1.506,1.506,0,0,1-.708,1.3.513.513,0,0,0-.173.58,1.329,1.329,0,0,1-.1.971,2.355,2.355,0,0,1-1.664.956,9.916,9.916,0,0,1-2.744.083h-.053a37.155,37.155,0,0,1-4.893-.267h0l-.38-.045a1.6,1.6,0,0,0,.034-.331v-6.12a1.592,1.592,0,0,0-.072-.467,3.146,3.146,0,0,1,.7-1.291c1.69-1.34,3.343-5.861,3.414-6.056a.477.477,0,0,0,.023-.252,2.352,2.352,0,0,1,.049-1.092,1.35,1.35,0,0,1,1.061.508c.384.531.369,1.479-.045,2.737-.632,1.916-.685,2.925-.184,3.369a.82.82,0,0,0,.821.147c.23-.053.448-.1.655-.132l.049-.011c1.156-.252,3.226-.407,3.945.248a1.083,1.083,0,0,1,.128,1.374.5.5,0,0,0,.09.655,1.426,1.426,0,0,1,.418.877A1.4,1.4,0,0,1,22.684,11.8Z" transform="translate(-6.675 0)" fill="url(#linear-gradient)"/>
  </g>
</svg>
