<svg xmlns="http://www.w3.org/2000/svg" xmlns:xlink="http://www.w3.org/1999/xlink" width="24" height="24" viewBox="0 0 24 24">
  <defs>
    <linearGradient id="linear-gradient" x2="0.931" y2="1.057" gradientUnits="objectBoundingBox">
      <stop offset="0" stop-color="#39d1ff"/>
      <stop offset="1" stop-color="#001eff"/>
    </linearGradient>
  </defs>
  <g id="location" transform="translate(-833 -666)">
    <rect id="Rectangle_14064" data-name="Rectangle 14064" width="24" height="24" transform="translate(833 666)" fill="none"/>
    <path id="Union_679" data-name="Union 679" d="M11637.414-12305.9c-.249-.232-.564-.509-.927-.83-2.616-2.3-7.487-6.585-7.487-11.735a9.475,9.475,0,0,1,2.792-6.74,9.468,9.468,0,0,1,6.74-2.792,9.468,9.468,0,0,1,6.74,2.792,9.471,9.471,0,0,1,2.792,6.74c0,5.15-4.871,9.436-7.486,11.735-.363.321-.677.6-.929.83a1.634,1.634,0,0,1-1.117.44A1.635,1.635,0,0,1,11637.414-12305.9Zm-7.094-12.565c0,4.554,4.579,8.581,7.037,10.745.373.326.694.608.958.855a.319.319,0,0,0,.434,0c.264-.247.585-.529.957-.855,2.46-2.164,7.037-6.191,7.037-10.745a8.221,8.221,0,0,0-8.211-8.212A8.221,8.221,0,0,0,11630.32-12318.469Zm4.011-.36a4.207,4.207,0,0,1,4.2-4.2,4.207,4.207,0,0,1,4.2,4.2,4.206,4.206,0,0,1-4.2,4.2A4.206,4.206,0,0,1,11634.331-12318.829Zm1.32,0a2.884,2.884,0,0,0,2.881,2.88,2.882,2.882,0,0,0,2.879-2.88,2.883,2.883,0,0,0-2.879-2.882A2.886,2.886,0,0,0,11635.651-12318.829Z" transform="translate(-10793.506 12994.732)" fill="url(#linear-gradient)"/>
  </g>
</svg>
