<svg xmlns="http://www.w3.org/2000/svg" width="14" height="14" viewBox="0 0 14 14">
  <g id="mini-calendar" transform="translate(-42 -246)">
    <rect id="Rectangle_14086" data-name="Rectangle 14086" width="14" height="14" transform="translate(42 246)" fill="none"/>
    <g id="Icon" transform="translate(42.583 246.583)">
      <path id="Path_25793" data-name="Path 25793" d="M11.538,2.908H8.813V2.454a.454.454,0,1,0-.908,0v.454H5.179V2.454a.454.454,0,1,0-.908,0v.454H3.362A1.363,1.363,0,0,0,2,4.271v9.083a1.363,1.363,0,0,0,1.363,1.363h9.992a1.363,1.363,0,0,0,1.363-1.363V4.271a1.363,1.363,0,0,0-1.363-1.362h-.908V2.454a.454.454,0,1,0-.908,0Zm2.271,3.633v6.812a.454.454,0,0,1-.454.454H3.362a.454.454,0,0,1-.454-.454V6.542ZM12.446,3.817v.454a.454.454,0,1,1-.908,0V3.817H8.813v.454a.454.454,0,1,1-.908,0V3.817H5.179v.454a.454.454,0,0,1-.908,0V3.817H3.362a.454.454,0,0,0-.454.454V5.633h10.9V4.271a.454.454,0,0,0-.454-.454Z" transform="translate(-1.942 -1.942)" fill="#b8b6cb" fill-rule="evenodd"/>
      <path id="Path_25793_-_Outline" data-name="Path 25793 - Outline" d="M4.685,1.9a.515.515,0,0,1,.515.515v.393H7.8V2.415a.515.515,0,0,1,1.029,0v.393h2.6V2.415a.515.515,0,0,1,1.029,0v.393h.847a1.424,1.424,0,0,1,1.423,1.423v9.08a1.424,1.424,0,0,1-1.423,1.423H3.323A1.424,1.424,0,0,1,1.9,13.311V4.231A1.424,1.424,0,0,1,3.323,2.808H4.17V2.415A.515.515,0,0,1,4.685,1.9ZM7.923,2.929H5.078V2.415a.393.393,0,0,0-.787,0v.515H3.323a1.3,1.3,0,0,0-1.3,1.3v9.08a1.3,1.3,0,0,0,1.3,1.3h9.988a1.3,1.3,0,0,0,1.3-1.3V4.231a1.3,1.3,0,0,0-1.3-1.3h-.969V2.415a.393.393,0,0,0-.787,0v.515H8.71V2.415a.393.393,0,1,0-.787,0Zm-4.6.787h.969v.515a.393.393,0,1,0,.787,0V3.716H7.923v.515a.393.393,0,1,0,.787,0V3.716h2.845v.515a.393.393,0,1,0,.787,0V3.716h.969a.515.515,0,0,1,.515.515V5.653H2.808V4.231A.515.515,0,0,1,3.323,3.716Zm.847.121H3.323a.394.394,0,0,0-.393.393v1.3H13.7v-1.3a.394.394,0,0,0-.393-.393h-.847v.393a.515.515,0,1,1-1.029,0V3.837h-2.6v.393a.515.515,0,0,1-1.029,0V3.837H5.2v.393a.515.515,0,1,1-1.029,0ZM2.808,6.44H13.825v6.871a.515.515,0,0,1-.515.515H3.323a.515.515,0,0,1-.515-.515Zm10.9.121H2.929v6.75a.394.394,0,0,0,.393.393h9.988a.394.394,0,0,0,.393-.393Z" transform="translate(-1.9 -1.9)" fill="#b8b6cb"/>
    </g>
  </g>
</svg>
