<svg xmlns="http://www.w3.org/2000/svg" width="30" height="30" viewBox="0 0 30 30">
  <g id="notification-active" transform="translate(-857 -549)">
    <rect id="Rectangle_14081" data-name="Rectangle 14081" width="30" height="30" transform="translate(857 549)" fill="none"/>
    <g id="Group_24638" data-name="Group 24638" transform="translate(348.809 -1952.79)">
      <path id="Path_37491" data-name="Path 37491" d="M535.63,2509.73a.949.949,0,0,0-.145-.5l-.147-.181a.972.972,0,0,0-1.358,0l-7.3,7.3-3.016-3.015a.963.963,0,0,0-1.362,0,.963.963,0,0,0,0,1.363l3.691,3.691a.967.967,0,0,0,1.364.012l7.977-7.978A.951.951,0,0,0,535.63,2509.73Z" transform="translate(-0.439 -0.202)" fill="#fff"/>
      <path id="Path_37492" data-name="Path 37492" d="M534.727,2523.437l-1.657-2.382a2.135,2.135,0,0,1-.384-1.213v-4.515l-1.556,1.556v2.953a3.665,3.665,0,0,0,.663,2.1l1.7,2.441a.526.526,0,0,0,.086.1l.36.333H512.444l.357-.333a.527.527,0,0,0,.09-.1l1.7-2.444a3.654,3.654,0,0,0,.663-2.1V2513a7.949,7.949,0,0,1,7.94-7.94h0a7.941,7.941,0,0,1,7.133,4.478l1.054-1.054A9.494,9.494,0,0,0,513.7,2513v6.837a2.111,2.111,0,0,1-.385,1.215l-1.673,2.4a1.746,1.746,0,0,0,1.292,2.915H518.6l.029.153a4.653,4.653,0,0,0,9.119,0l.032-.153h5.67a1.744,1.744,0,0,0,1.289-2.915Zm-8.624,3.184a3.086,3.086,0,0,1-5.825,0l-.09-.254h6.005Z" fill="#fff"/>
    </g>
  </g>
</svg>
