<svg xmlns="http://www.w3.org/2000/svg" width="30" height="30" viewBox="0 0 30 30">
  <g id="notification" transform="translate(-857 -549)">
    <rect id="Rectangle_14082" data-name="Rectangle 14082" width="30" height="30" transform="translate(857 549)" fill="none"/>
    <g id="Group_24644" data-name="Group 24644" transform="translate(257.468 -1960.979)">
      <path id="Path_37495" data-name="Path 37495" d="M625.871,2520.884h-4.046v-4.046a1.112,1.112,0,0,0-2.224,0v4.046h-4.046a1.112,1.112,0,1,0,0,2.224H619.6v4.046a1.112,1.112,0,0,0,2.224,0v-4.046h4.046a1.112,1.112,0,1,0,0-2.224Z" transform="translate(-0.483 -0.152)" fill="#fff"/>
      <g id="Group_24643" data-name="Group 24643" transform="translate(602.532 2511.978)">
        <path id="Path_37496" data-name="Path 37496" d="M626.068,2531.625l-1.657-2.382a2.135,2.135,0,0,1-.384-1.213v-.975a2.977,2.977,0,0,1-1.424,1.909,3.655,3.655,0,0,0,.531,1.158l1.7,2.441a.515.515,0,0,0,.086.1l.36.333H603.785l.357-.333a.537.537,0,0,0,.09-.1l1.7-2.444a3.652,3.652,0,0,0,.663-2.1v-6.838a7.949,7.949,0,0,1,7.94-7.94h0a7.91,7.91,0,0,1,4,1.1,2.97,2.97,0,0,1,1.363-.7,9.5,9.5,0,0,0-14.859,7.553v6.837a2.111,2.111,0,0,1-.385,1.215l-1.673,2.4a1.746,1.746,0,0,0,1.292,2.915h5.669l.029.153a4.653,4.653,0,0,0,9.119,0l.032-.153h5.67a1.744,1.744,0,0,0,1.289-2.915Zm-8.624,3.184a3.086,3.086,0,0,1-5.825,0l-.09-.254h6.005Z" transform="translate(-602.532 -2511.978)" fill="#fff"/>
      </g>
    </g>
  </g>
</svg>
