<svg xmlns="http://www.w3.org/2000/svg" width="22.002" height="3.998" viewBox="0 0 22.002 3.998">
  <g id="options" transform="translate(-1053.5 -126.502)">
    <path id="Subtraction_501" data-name="Subtraction 501" d="M-18201,3043a2,2,0,0,1-2-2,2,2,0,0,1,2-2,2,2,0,0,1,2,2A2,2,0,0,1-18201,3043Z" transform="translate(19256.5 -2912.5)" fill="#b8b6cb"/>
    <path id="Subtraction_502" data-name="Subtraction 502" d="M-18201,3043a2,2,0,0,1-2-2,2,2,0,0,1,2-2,2,2,0,0,1,2,2A2,2,0,0,1-18201,3043Z" transform="translate(19265.5 -2912.5)" fill="#b8b6cb"/>
    <path id="Subtraction_503" data-name="Subtraction 503" d="M-18201,3043a2,2,0,0,1-2-2,2,2,0,0,1,2-2,2,2,0,0,1,2,2A2,2,0,0,1-18201,3043Z" transform="translate(19274.5 -2912.5)" fill="#b8b6cb"/>
  </g>
</svg>
