<svg xmlns="http://www.w3.org/2000/svg" xmlns:xlink="http://www.w3.org/1999/xlink" width="24" height="24" viewBox="0 0 24 24">
  <defs>
    <linearGradient id="linear-gradient" x1="0.041" y1="0.079" x2="1.021" y2="1" gradientUnits="objectBoundingBox">
      <stop offset="0" stop-color="#39d1ff"/>
      <stop offset="1" stop-color="#3149ff"/>
    </linearGradient>
  </defs>
  <g id="participants" transform="translate(-672 -490)">
    <rect id="Rectangle_14063" data-name="Rectangle 14063" width="24" height="24" transform="translate(672 490)" fill="none"/>
    <path id="Union_652" data-name="Union 652" d="M3607,6658.341v-1.225a8.566,8.566,0,0,1,5.737-7.828,5.259,5.259,0,1,1,6.758,0,8.56,8.56,0,0,1,5.729,7.815v1.2a.922.922,0,0,1-.837.874.592.592,0,0,1-.078,0,.921.921,0,0,1-.917-.84v-1.225c0-3.624-3.265-6.575-7.279-6.575s-7.279,2.951-7.279,6.575v1.188a.924.924,0,0,1-.839.874c-.03,0-.061,0-.091,0A.914.914,0,0,1,3607,6658.341Zm5.694-13.058a3.421,3.421,0,1,0,3.421-3.422A3.428,3.428,0,0,0,3612.7,6645.284Zm17.31,12.041a.919.919,0,0,1-.838-.993l0-.884a5.16,5.16,0,0,0-5.333-4.911h-.14a.919.919,0,0,1-.508-1.619.887.887,0,0,1,.671-.211,2.458,2.458,0,0,0-.038-4.916h-.11a.923.923,0,0,1-.846-1,.907.907,0,0,1,.992-.837h0a4.256,4.256,0,0,1,3.542,1.93,4.3,4.3,0,0,1-.58,5.426,6.774,6.774,0,0,1,4.18,6.125l0,1.046a.922.922,0,0,1-.916.844A.585.585,0,0,1,3630.006,6657.325Z" transform="translate(-2935.001 -6147.502)" fill="url(#linear-gradient)"/>
  </g>
</svg>
