<svg xmlns="http://www.w3.org/2000/svg" xmlns:xlink="http://www.w3.org/1999/xlink" width="24" height="24" viewBox="0 0 24 24">
  <defs>
    <linearGradient id="linear-gradient" y1="-0.053" x2="1" y2="1" gradientUnits="objectBoundingBox">
      <stop offset="0" stop-color="#39d1ff"/>
      <stop offset="1" stop-color="#3149ff"/>
    </linearGradient>
  </defs>
  <g id="password-icon" transform="translate(-667 -354)">
    <path id="Union_653" data-name="Union 653" d="M3609.143,6660a2.112,2.112,0,0,1-2.144-2.073v-8.538a2.112,2.112,0,0,1,2.144-2.073h.4v-2.194a5.318,5.318,0,0,1,10.63,0v2.194h.395a2.112,2.112,0,0,1,2.144,2.073v8.538a2.111,2.111,0,0,1-2.144,2.073Zm-.4-10.61v8.538a.383.383,0,0,0,.4.366h11.42a.384.384,0,0,0,.4-.366v-8.538a.385.385,0,0,0-.4-.365h-11.42A.383.383,0,0,0,3608.745,6649.39Zm2.54-4.267v2.194h7.138v-2.194a3.573,3.573,0,0,0-7.138,0Z" transform="translate(-2936 -6284.001)" fill="url(#linear-gradient)"/>
    <rect id="Rectangle_14063" data-name="Rectangle 14063" width="24" height="24" transform="translate(667 354)" fill="none"/>
  </g>
</svg>
