<svg xmlns="http://www.w3.org/2000/svg" xmlns:xlink="http://www.w3.org/1999/xlink" width="24" height="24.001" viewBox="0 0 24 24.001">
  <defs>
    <linearGradient id="linear-gradient" x2="1" y2="1.05" gradientUnits="objectBoundingBox">
      <stop offset="0" stop-color="#39d1ff"/>
      <stop offset="1" stop-color="#3149ff"/>
    </linearGradient>
  </defs>
  <path id="pool" d="M7.875,13.871a6.163,6.163,0,0,0-7.1,1.153A.937.937,0,1,0,2.1,16.35a4.282,4.282,0,0,1,6.049,0h0a6.149,6.149,0,0,0,8.7,0,4.282,4.282,0,0,1,6.049,0,.938.938,0,1,0,1.326-1.326A6.12,6.12,0,0,0,20.813,13.3V4.625a4.625,4.625,0,0,0-9.25,0,.938.938,0,1,0,1.875,0,2.75,2.75,0,1,1,5.5,0V9.219H9.75V4.625a4.625,4.625,0,1,0-9.25,0,.937.937,0,1,0,1.875,0,2.75,2.75,0,0,1,5.5,0Zm11.062-2.777v2.2a6.12,6.12,0,0,0-3.413,1.728,4.274,4.274,0,0,1-5.775.251V11.094Zm5.288,9.778A.938.938,0,1,1,22.9,22.2a4.282,4.282,0,0,0-6.049,0,6.149,6.149,0,0,1-8.7,0,4.283,4.283,0,0,0-6.049,0A.937.937,0,1,1,.775,20.872a6.159,6.159,0,0,1,8.7,0,4.275,4.275,0,0,0,6.049,0A6.159,6.159,0,0,1,24.225,20.872Zm0,0" transform="translate(-0.5)" fill="url(#linear-gradient)"/>
</svg>
