<svg id="share-small" xmlns="http://www.w3.org/2000/svg" xmlns:xlink="http://www.w3.org/1999/xlink" width="24" height="24" viewBox="0 0 24 24">
  <defs>
    <linearGradient id="linear-gradient" x2="0.849" y2="1" gradientUnits="objectBoundingBox">
      <stop offset="0" stop-color="#39d1ff"/>
      <stop offset="1" stop-color="#3149ff"/>
    </linearGradient>
  </defs>
  <rect id="Rectangle_14092" data-name="Rectangle 14092" width="24" height="24" fill="none"/>
  <path id="Subtraction_494" data-name="Subtraction 494" d="M11.951,19.2a.687.687,0,0,1-.269-.055.663.663,0,0,1-.4-.608V13.249l-.082,0c-7.193.172-8.52,2.8-9.926,5.581a.667.667,0,0,1-.6.368.646.646,0,0,1-.155-.018A.662.662,0,0,1,0,18.536C0,11.81.842,6.221,11.2,5.965l.078,0V.664a.664.664,0,0,1,.4-.608A.681.681,0,0,1,11.951,0a.673.673,0,0,1,.457.176l9.775,8.938a.655.655,0,0,1,0,.973l-9.775,8.938A.672.672,0,0,1,11.951,19.2Zm0-7.285a.669.669,0,0,1,.671.663v4.44L20.738,9.6,12.623,2.182V6.621a.668.668,0,0,1-.671.664,18.965,18.965,0,0,0-5.108.581A7.394,7.394,0,0,0,3.69,9.532,6.32,6.32,0,0,0,2.04,12.169a13.429,13.429,0,0,0-.616,3.454L1.4,15.9l.164-.219a8,8,0,0,1,3.438-2.65A17.979,17.979,0,0,1,11.951,11.915Z" transform="translate(0.8 1.188)" fill="url(#linear-gradient)"/>
</svg>
