<svg xmlns="http://www.w3.org/2000/svg" xmlns:xlink="http://www.w3.org/1999/xlink" width="30" height="30" viewBox="0 0 30 30">
  <defs>
    <linearGradient id="linear-gradient" x2="0.849" y2="1" gradientUnits="objectBoundingBox">
      <stop offset="0" stop-color="#39d1ff"/>
      <stop offset="1" stop-color="#3149ff"/>
    </linearGradient>
  </defs>
  <g id="share" transform="translate(-794 -549)">
    <rect id="Rectangle_14092" data-name="Rectangle 14092" width="30" height="30" transform="translate(794 549)" fill="none"/>
    <path id="Subtraction_494" data-name="Subtraction 494" d="M10077.138,6665.2a.854.854,0,0,1-.337-.069.83.83,0,0,1-.5-.761v-6.609l-.1,0c-8.991.215-10.65,3.5-12.407,6.976a.834.834,0,0,1-.75.46.808.808,0,0,1-.194-.023.828.828,0,0,1-.646-.807c0-8.408,1.053-15.394,14-15.713l.1,0v-6.625a.832.832,0,0,1,.5-.761.853.853,0,0,1,.337-.069.843.843,0,0,1,.571.22l12.219,11.172a.817.817,0,0,1,.271.608.825.825,0,0,1-.271.608l-12.219,11.172A.842.842,0,0,1,10077.138,6665.2Zm0-9.106a.836.836,0,0,1,.839.83v5.549l10.145-9.272-10.145-9.272v5.549a.836.836,0,0,1-.839.83,23.7,23.7,0,0,0-6.386.726,9.238,9.238,0,0,0-3.94,2.083,7.884,7.884,0,0,0-2.063,3.295,16.779,16.779,0,0,0-.771,4.317l-.023.342.205-.273a10,10,0,0,1,4.3-3.312A22.47,22.47,0,0,1,10077.138,6656.094Z" transform="translate(-9267.199 -6089.199)" fill="url(#linear-gradient)"/>
  </g>
</svg>
