<svg xmlns="http://www.w3.org/2000/svg" xmlns:xlink="http://www.w3.org/1999/xlink" width="23.998" height="23.998" viewBox="0 0 23.998 23.998">
  <defs>
    <linearGradient id="linear-gradient" x1="0.5" x2="0.5" y2="1" gradientUnits="objectBoundingBox">
      <stop offset="0" stop-color="#39d1ff"/>
      <stop offset="1" stop-color="#3149ff"/>
    </linearGradient>
  </defs>
  <path id="swap" d="M21830.727-17262.705a.793.793,0,0,1-.6-.266l-4.574-4.936a.929.929,0,0,1-.254-.656.954.954,0,0,1,.254-.66l4.574-4.932a.8.8,0,0,1,.6-.273.823.823,0,0,1,.6.268.988.988,0,0,1,.256.666.971.971,0,0,1-.256.656l-3.115,3.354h20.244a.889.889,0,0,1,.846.922.893.893,0,0,1-.846.928h-20.244l3.115,3.354a.947.947,0,0,1,.256.654.948.948,0,0,1-.256.656A.807.807,0,0,1,21830.727-17262.705Zm13.143-12.275a.806.806,0,0,1-.594-.268.968.968,0,0,1-.254-.654.948.948,0,0,1,.254-.656l2.877-3.1.238-.256h-20.24a.887.887,0,0,1-.848-.92.892.892,0,0,1,.848-.928h20.24l-3.115-3.35a.983.983,0,0,1-.254-.666.987.987,0,0,1,.254-.654.826.826,0,0,1,.594-.268.831.831,0,0,1,.6.268l4.58,4.936a.959.959,0,0,1,.256.662.931.931,0,0,1-.256.654l-4.58,4.936A.813.813,0,0,1,21843.869-17274.98Z" transform="translate(-21825.303 17286.703)" fill="url(#linear-gradient)"/>
</svg>
