<svg xmlns="http://www.w3.org/2000/svg" xmlns:xlink="http://www.w3.org/1999/xlink" width="24.002" height="26.172" viewBox="0 0 24.002 26.172">
  <defs>
    <linearGradient id="linear-gradient" x1="0.5" x2="0.5" y2="1" gradientUnits="objectBoundingBox">
      <stop offset="0" stop-color="#39d1ff"/>
      <stop offset="1" stop-color="#3149ff"/>
    </linearGradient>
  </defs>
  <path id="vote" d="M21832.742-17257.006a.89.89,0,0,1-.854-.654l-3.416-12.791a.9.9,0,0,1,.623-1.086l4.246-1.139a.791.791,0,0,1,.207-.027.869.869,0,0,1,.367.086l.178.082.1-.168a9.947,9.947,0,0,0,1.467-5.037l.033-2.3a3.212,3.212,0,0,1,2.359-3.025,3.03,3.03,0,0,1,.666-.107c.055,0,.111,0,.168,0a3.186,3.186,0,0,1,2.045.748,3.191,3.191,0,0,1,1.113,2.057l.752,5.156,4.238-1.139a4.241,4.241,0,0,1,1.117-.148,4.313,4.313,0,0,1,3.09,1.316,4.328,4.328,0,0,1,1.016,4.256l-2.336,7.684a3.372,3.372,0,0,1-2.352,2.287l-5.453,1.465h-.01a6.616,6.616,0,0,1-1.74.234,6.683,6.683,0,0,1-2.154-.359l-.52-.186.145.547a.869.869,0,0,1-.088.668.873.873,0,0,1-.535.412l-4.246,1.143A.844.844,0,0,1,21832.742-17257.006Zm.209-13.732-2.549.682,2.961,11.084,2.547-.686Zm5.934-10.686a1.484,1.484,0,0,0-.363.047l-.008.006a1.433,1.433,0,0,0-1.055,1.359l-.039,2.3a11.817,11.817,0,0,1-2.525,7.072l-.068.088,2.322,8.7,1.627.553a4.9,4.9,0,0,0,1.594.262,4.838,4.838,0,0,0,1.289-.172l5.443-1.459.006-.006a1.6,1.6,0,0,0,1.123-1.092l2.34-7.682a2.536,2.536,0,0,0-.6-2.512,2.548,2.548,0,0,0-1.828-.779,2.512,2.512,0,0,0-.652.086l-5.2,1.4a.918.918,0,0,1-.225.029.908.908,0,0,1-.488-.145.89.89,0,0,1-.389-.611l-.895-6.158a1.419,1.419,0,0,0-.623-1.039A1.379,1.379,0,0,0,21838.885-17281.424Z" transform="translate(-21828.443 17283.178)" fill="url(#linear-gradient)"/>
</svg>
