<svg xmlns="http://www.w3.org/2000/svg" xmlns:xlink="http://www.w3.org/1999/xlink" width="23.998" height="23.996" viewBox="0 0 23.998 23.996">
  <defs>
    <linearGradient id="linear-gradient" x1="0.5" y1="-0.072" x2="0.5" y2="1" gradientUnits="objectBoundingBox">
      <stop offset="0" stop-color="#39d1ff"/>
      <stop offset="1" stop-color="#3149ff"/>
    </linearGradient>
  </defs>
  <path id="confeti" d="M21826.379-17263.041a1.765,1.765,0,0,1-.867-.473,1.678,1.678,0,0,1-.471-.871,1.67,1.67,0,0,1,.07-.977l2.133-5.863a.727.727,0,0,1,.063-.176l2.049-5.641a.634.634,0,0,1,.055-.15l1.607-4.424a1.752,1.752,0,0,1,.49-.719,1.708,1.708,0,0,1,.779-.393,1.757,1.757,0,0,1,.877.027,1.762,1.762,0,0,1,.746.447l10.336,10.334s0,0,0,.006a1.724,1.724,0,0,1,.443.746,1.764,1.764,0,0,1,.035.873,1.861,1.861,0,0,1-.4.779,1.808,1.808,0,0,1-.723.5l-10.219,3.711a.962.962,0,0,1-.148.055l-5.887,2.137a1.762,1.762,0,0,1-.611.109A1.783,1.783,0,0,1,21826.379-17263.041Zm.375-1.707v0s0-.006,0-.006,0,0-.008,0h.008l-.816-.3Zm.01-.018,4.654-1.689-2.963-2.967Zm6.477-2.352,3.975-1.443-6.654-6.654-1.447,3.975Zm5.795-2.107,3.977-1.443,0-.006-10.34-10.336-.006,0-1.441,3.975Zm-12.295,4.465h0Zm19.879-8.449-1.756-1.756a.881.881,0,0,1,0-1.242.877.877,0,0,1,1.242,0l1.756,1.758a.875.875,0,0,1,0,1.24.862.862,0,0,1-.621.256A.865.865,0,0,1,21846.619-17273.209Zm-1.969-5.609a.88.88,0,0,1,.557-1.113l2.633-.875a.882.882,0,0,1,1.113.553.887.887,0,0,1-.557,1.113l-2.633.879a.931.931,0,0,1-.279.041A.879.879,0,0,1,21844.65-17278.818Zm-5.311-1.156h.877c-.877,0-.877,0-.877,0v-.053c0-.033,0-.072,0-.121.01-.1.021-.227.049-.379a4.208,4.208,0,0,1,.367-1.152,3.223,3.223,0,0,1,1.082-1.246,3.549,3.549,0,0,1,2.012-.559,1.819,1.819,0,0,0,1.033-.262,1.465,1.465,0,0,0,.486-.568,2.653,2.653,0,0,0,.207-.662c.014-.09.02-.166.025-.215a.411.411,0,0,1,0-.047v-.012a.874.874,0,0,1,.877-.869.876.876,0,0,1,.877.881h0v.059a.856.856,0,0,1-.006.113,3.445,3.445,0,0,1-.047.383,4.263,4.263,0,0,1-.367,1.156,3.256,3.256,0,0,1-1.082,1.242,3.571,3.571,0,0,1-2.008.559,1.848,1.848,0,0,0-1.039.262,1.432,1.432,0,0,0-.48.572,2.442,2.442,0,0,0-.213.654c-.014.09-.018.168-.021.215,0,.025,0,.045,0,.053v.006a.877.877,0,0,1-.877.871A.873.873,0,0,1,21839.34-17279.975Zm-2.635-3.514v-2.635a.876.876,0,0,1,.877-.877.878.878,0,0,1,.877.877v2.635a.879.879,0,0,1-.877.881A.876.876,0,0,1,21836.705-17283.488Z" transform="translate(-21824.998 17287)" fill="url(#linear-gradient)"/>
</svg>
