<svg xmlns="http://www.w3.org/2000/svg" width="12" height="12" viewBox="0 0 12 12">
  <g id="redirect" transform="translate(-903 -262)">
    <rect id="Rectangle_15039" data-name="Rectangle 15039" width="12" height="12" transform="translate(903 262)" fill="none"/>
    <g id="Group_25341" data-name="Group 25341" transform="translate(903.75 263.75)">
      <path id="Line_2016" data-name="Line 2016" d="M10.255.657H-.046a.7.7,0,0,1-.7-.7.7.7,0,0,1,.7-.7h10.3a.7.7,0,0,1,.7.7A.7.7,0,0,1,10.255.657Z" transform="translate(0 4.296)" fill="#26fffe"/>
      <path id="Path_31317" data-name="Path 31317" d="M4868.954,114.116a.685.685,0,0,1-.5-.216.76.76,0,0,1,0-1.042l3.575-3.743-3.575-3.743a.76.76,0,0,1,0-1.042.682.682,0,0,1,1,0l4.57,4.784-4.57,4.784A.687.687,0,0,1,4868.954,114.116Z" transform="translate(-4862.771 -104.866)" fill="#26fffe"/>
    </g>
  </g>
</svg>
