<svg xmlns="http://www.w3.org/2000/svg" xmlns:xlink="http://www.w3.org/1999/xlink" width="30" height="30" viewBox="0 0 30 30">
  <defs>
    <linearGradient id="linear-gradient" y1="-0.048" x2="0.934" y2="1" gradientUnits="objectBoundingBox">
      <stop offset="0" stop-color="#39d1ff"/>
      <stop offset="1" stop-color="#001eff"/>
    </linearGradient>
  </defs>
  <g id="settings" transform="translate(-42 -471)">
    <rect id="Rectangle_14091" data-name="Rectangle 14091" width="30" height="30" transform="translate(42 471)" fill="none"/>
    <path id="path87_-_Outline" data-name="path87 - Outline" d="M-293.941-210.527h4.518a2.005,2.005,0,0,1,1.984,1.681l.244,1.462a1.743,1.743,0,0,0,1.723,1.462,1.746,1.746,0,0,0,.614-.113l1.388-.52a2,2,0,0,1,.705-.128,2.018,2.018,0,0,1,1.742,1.006l2.259,3.913a2.006,2.006,0,0,1-.464,2.559l-1.144.942a1.742,1.742,0,0,0-.637,1.35,1.742,1.742,0,0,0,.637,1.35l1.144.942a2.006,2.006,0,0,1,.464,2.559l-2.259,3.913a2.018,2.018,0,0,1-1.742,1.006,2,2,0,0,1-.705-.128l-1.388-.52a1.746,1.746,0,0,0-.614-.113,1.743,1.743,0,0,0-1.724,1.462l-.244,1.462a2.005,2.005,0,0,1-1.984,1.681h-4.518a2.005,2.005,0,0,1-1.984-1.681l-.244-1.462a1.743,1.743,0,0,0-1.723-1.462,1.745,1.745,0,0,0-.614.113l-1.388.52a2,2,0,0,1-.706.128,2.018,2.018,0,0,1-1.742-1.006l-2.259-3.913a2.006,2.006,0,0,1,.464-2.559l1.144-.942a1.742,1.742,0,0,0,.637-1.35,1.742,1.742,0,0,0-.637-1.35l-1.144-.942a2.006,2.006,0,0,1-.464-2.559l2.259-3.913a2.018,2.018,0,0,1,1.742-1.006,2,2,0,0,1,.706.128l1.388.52a1.746,1.746,0,0,0,.614.113,1.743,1.743,0,0,0,1.724-1.462l.244-1.462A2.005,2.005,0,0,1-293.941-210.527Zm8.469,6.48a3.612,3.612,0,0,1-3.573-3.029l-.244-1.462a.136.136,0,0,0-.135-.114h-4.518a.136.136,0,0,0-.135.114l-.244,1.462a3.612,3.612,0,0,1-3.573,3.029,3.614,3.614,0,0,1-1.272-.232l-1.388-.52a.133.133,0,0,0-.048-.009.138.138,0,0,0-.119.069l-2.259,3.913a.136.136,0,0,0,.032.174l1.144.942a3.611,3.611,0,0,1,1.32,2.8,3.611,3.611,0,0,1-1.32,2.8l-1.144.942a.136.136,0,0,0-.031.174l2.259,3.913a.138.138,0,0,0,.119.069.136.136,0,0,0,.048-.009l1.388-.52a3.614,3.614,0,0,1,1.272-.232,3.612,3.612,0,0,1,3.573,3.029l.244,1.462a.136.136,0,0,0,.135.114h4.518a.136.136,0,0,0,.135-.114l.244-1.462a3.612,3.612,0,0,1,3.573-3.029,3.614,3.614,0,0,1,1.272.232l1.388.52a.134.134,0,0,0,.048.009.138.138,0,0,0,.119-.069l2.259-3.913a.136.136,0,0,0-.032-.174l-1.144-.942a3.611,3.611,0,0,1-1.32-2.8,3.611,3.611,0,0,1,1.32-2.8l1.144-.942a.136.136,0,0,0,.032-.174l-2.259-3.913a.138.138,0,0,0-.119-.068.136.136,0,0,0-.048.009l-1.388.52A3.614,3.614,0,0,1-285.472-204.047Zm-6.21,1.971a5.169,5.169,0,0,1,5.163,5.163,5.169,5.169,0,0,1-5.163,5.163,5.169,5.169,0,0,1-5.163-5.163A5.169,5.169,0,0,1-291.682-202.076Zm0,8.451a3.291,3.291,0,0,0,3.288-3.288,3.291,3.291,0,0,0-3.288-3.288,3.292,3.292,0,0,0-3.288,3.288A3.291,3.291,0,0,0-291.682-193.626Z" transform="translate(348.682 682.917)" fill="url(#linear-gradient)"/>
  </g>
</svg>
