<svg xmlns="http://www.w3.org/2000/svg" xmlns:xlink="http://www.w3.org/1999/xlink" width="23.998" height="26.188" viewBox="0 0 23.998 26.188">
  <defs>
    <linearGradient id="linear-gradient" x1="0.5" x2="0.5" y2="1" gradientUnits="objectBoundingBox">
      <stop offset="0" stop-color="#39d1ff"/>
      <stop offset="1" stop-color="#3149ff"/>
    </linearGradient>
  </defs>
  <path id="thenft" d="M21837.24-17260.611h-.088a16.012,16.012,0,0,1-2.168-.15l-.018,0a.435.435,0,0,1-.1-.018l-.006,0c-.318-.043-.633-.1-.939-.164l-.021,0h-.006c-.34-.068-.641-.137-.9-.211l-.006,0a.191.191,0,0,0-.033-.014l0-.006a11.032,11.032,0,0,1-5.115-2.943l-.039-.043-1.7.4a1.052,1.052,0,0,1-.166.016.741.741,0,0,1-.713-.564.717.717,0,0,1,.092-.553.77.77,0,0,1,.455-.328l1.1-.254-.064-.115a5.309,5.309,0,0,1-.654-2.5,5.478,5.478,0,0,1,.293-1.719l.039-.111-.7-.146a.725.725,0,0,1-.453-.316.715.715,0,0,1-.105-.549.73.73,0,0,1,.709-.58,1.414,1.414,0,0,1,.148.01l.006,0,.4.086.123.027v-.127c0-.018,0-.037,0-.059s0-.039,0-.059v-.115a.14.14,0,0,0-.014-.055l0-.012,0-.006,0-.314a10.422,10.422,0,0,1,.84-4.158l.012-.039-.018-.043a13.3,13.3,0,0,1-.369-3.162.249.249,0,0,1,0-.037.171.171,0,0,0,0-.031v-.127s0-.01,0-.016a.029.029,0,0,1,0-.018c0-3.959,1.7-7.061,3.875-7.061a2.867,2.867,0,0,1,2.252,1.271,8.134,8.134,0,0,1,1.393,3.457l.016.1.105-.021a12.32,12.32,0,0,1,2.518-.26,12.353,12.353,0,0,1,2.514.26l.1.021.016-.1a8.173,8.173,0,0,1,1.395-3.457,2.882,2.882,0,0,1,2.254-1.271c2.172,0,3.871,3.1,3.871,7.061v.039a.05.05,0,0,1,0,.023c0,.01,0,.02,0,.031a.24.24,0,0,0,0,.039.189.189,0,0,1,0,.033v.066a13.341,13.341,0,0,1-.371,3.158l-.016.043.016.039a10.412,10.412,0,0,1,.836,4.158v.332a.16.16,0,0,0-.012.055c0,.02,0,.039,0,.059s0,.02,0,.029v.271l.52-.117.037,0a1,1,0,0,1,.111-.008.734.734,0,0,1,.709.58.7.7,0,0,1-.1.549.727.727,0,0,1-.459.314l-.7.148.037.111a5.456,5.456,0,0,1,.295,1.709,5.365,5.365,0,0,1-.658,2.51l-.061.115,1.105.254a.75.75,0,0,1,.453.328.762.762,0,0,1,.092.553.743.743,0,0,1-.711.564,1.266,1.266,0,0,1-.166-.014l-1.652-.391-.055-.016-.041.043a11.1,11.1,0,0,1-5.1,2.943l-.012.006a.015.015,0,0,1-.01,0,.068.068,0,0,0-.018.012h-.012a16.074,16.074,0,0,1-1.885.385.13.13,0,0,0-.051.012.112.112,0,0,1-.023,0,.023.023,0,0,1-.016,0h-.012A16.089,16.089,0,0,1,21837.24-17260.611Zm-6.889-5.629a.741.741,0,0,1,.713.563.731.731,0,0,1-.1.557.709.709,0,0,1-.451.318l-1.076.254.158.133a10.3,10.3,0,0,0,3.75,1.836l.027.008c.41.109.879.211,1.473.313a15.189,15.189,0,0,0,2.355.189,14.46,14.46,0,0,0,2.471-.211,12.446,12.446,0,0,0,1.35-.293l.027-.006a10.212,10.212,0,0,0,3.742-1.836l.162-.133-1.074-.254a.732.732,0,0,1-.543-.875.745.745,0,0,1,.721-.562.894.894,0,0,1,.156.014l1.779.418.07.018.041-.062a4.1,4.1,0,0,0,.684-2.219,4,4,0,0,0-.287-1.437l-.027-.076-2.1.441-.027.006-.012,0a.915.915,0,0,1-.115.014.722.722,0,0,1-.713-.582.714.714,0,0,1,.1-.547.7.7,0,0,1,.459-.314l2.16-.467.072-.014.006-.078c.025-.318.045-.633.045-.957v-.027a8.628,8.628,0,0,0-1.5-4.959,8.45,8.45,0,0,0-3.992-3.08,10.29,10.29,0,0,0-3.658-.648,9.77,9.77,0,0,0-5.225,1.422,8.348,8.348,0,0,0-3.934,7.266v.016a9.334,9.334,0,0,0,.051.973l0,.074,2.23.48a.7.7,0,0,1,.457.314.705.705,0,0,1,.105.547.729.729,0,0,1-.713.582.738.738,0,0,1-.141-.018l-.016-.006-2.01-.424-.086-.018-.027.076a3.952,3.952,0,0,0-.291,1.443,4.074,4.074,0,0,0,.686,2.213l.037.061,1.854-.432A.734.734,0,0,1,21830.352-17266.24Zm.568-19.094c-.986,0-2.377,2.176-2.4,5.723.006.367.025.723.061,1.09l.027.238.156-.189a9.85,9.85,0,0,1,4.18-3.023l.029-.01a.058.058,0,0,0,.02-.008l.018-.006.02,0,.016-.006.035-.012.072-.033-.012-.076C21832.7-17284.07,21831.691-17285.334,21830.92-17285.334Zm12.563,0c-.771,0-1.779,1.264-2.217,3.684l-.016.082.076.027a9.94,9.94,0,0,1,4.32,3.068l.148.189.027-.238a10.466,10.466,0,0,0,.066-1.09C21845.854-17283.158,21844.467-17285.334,21843.482-17285.334Zm-6.275,18.143h-.01a.742.742,0,0,1-.588-.293l-.885-1.184a.743.743,0,0,1-.066-.77.722.722,0,0,1,.654-.4h1.781a.73.73,0,0,1,.65.4.727.727,0,0,1-.066.77l-.891,1.184A.713.713,0,0,1,21837.207-17267.191Zm4.49-5.078h0s-.006,0-.01,0a.28.28,0,0,0-.045-.006.591.591,0,0,1-.211-.055h-.01a.033.033,0,0,0-.021-.006.1.1,0,0,0-.041-.012l-.012-.01a.714.714,0,0,1-.248-.2.984.984,0,0,0-.248-.227l-.006-.006-.047-.023-.018-.008a.048.048,0,0,1-.018-.008.064.064,0,0,1-.027-.008l-.006,0a.738.738,0,0,0-.227-.076,1.161,1.161,0,0,0-.139-.006c-.064,0-.139,0-.205.006l-.006.006a.744.744,0,0,0-.131.041.229.229,0,0,0-.021.01l-.012,0a.662.662,0,0,0-.162.076,1.036,1.036,0,0,0-.248.223.652.652,0,0,1-.248.2.16.16,0,0,1-.061.021h-.014l-.016.006a.683.683,0,0,1-.193.055.228.228,0,0,0-.061.008.66.66,0,0,1-.078-.014h0l-.01,0h-.006a.025.025,0,0,0-.012,0l-.021-.006h-.023a.14.14,0,0,0-.025,0l-.012,0a.762.762,0,0,1-.246-.115.72.72,0,0,1-.289-.484.717.717,0,0,1,.143-.535.027.027,0,0,1,.01-.016.062.062,0,0,0,.014-.012.36.36,0,0,0,.037-.039,2.15,2.15,0,0,1,.354-.352l.006,0,.006-.008a.186.186,0,0,0,.027-.041l.021-.021a.527.527,0,0,1,.094-.055l.012,0a.215.215,0,0,0,.051-.035.213.213,0,0,0,.029-.016h0l.008-.006a.591.591,0,0,1,.121-.066l.006,0a1.643,1.643,0,0,1,.242-.117c.051-.018.1-.033.141-.051a.151.151,0,0,0,.035-.01l.012,0,.008,0a1.688,1.688,0,0,1,.242-.061,1.594,1.594,0,0,1,.211-.029l.016-.006c.063-.006.139-.01.217-.01a2.092,2.092,0,0,1,.266.016c.047.006.086.012.133.02l.049.012a1.5,1.5,0,0,1,.281.064l.021.008a.712.712,0,0,1,.119.041l.016.006a2.136,2.136,0,0,1,.252.113l.023.01.01.008a.413.413,0,0,0,.063.035c.02.014.041.027.072.047l.006,0,.006,0,.039.023.012,0,.01.006a.213.213,0,0,0,.029.016l.01,0a.249.249,0,0,1,.049.029.1.1,0,0,1,.021.027l.033.035.006.006a2.075,2.075,0,0,1,.371.369l.006.012a.079.079,0,0,0,.02.018l0,0a.059.059,0,0,0,.014.01l0,0s0,0,0,0a.725.725,0,0,1,.139.543.725.725,0,0,1-.287.482.84.84,0,0,1-.242.115l-.006,0-.02.006-.025.006h-.027a.156.156,0,0,1-.029.006.062.062,0,0,0-.027.006l-.023.006h0l-.006,0h-.012Zm-6.281,0h0a.126.126,0,0,0-.047-.01.715.715,0,0,1-.223-.055l-.021-.006-.01-.006-.025-.008-.02-.008a.719.719,0,0,1-.248-.2.941.941,0,0,0-.256-.232l-.029-.014-.012,0a.089.089,0,0,0-.037-.016h0l-.006,0-.006,0a.049.049,0,0,1-.014-.008.041.041,0,0,1-.012-.008l-.006,0c-.072-.027-.135-.051-.205-.07h-.012a1.393,1.393,0,0,0-.154-.006,1.05,1.05,0,0,0-.187.012.978.978,0,0,0-.166.045l-.027.008-.012.014a.59.59,0,0,0-.127.064.768.768,0,0,0-.25.223.664.664,0,0,1-.254.2.212.212,0,0,1-.055.021l-.027.008-.006,0a.683.683,0,0,1-.205.057.13.13,0,0,0-.043.008.627.627,0,0,1-.084-.014h0l-.01,0-.018,0-.021-.006h-.039l-.018,0a1,1,0,0,1-.254-.115.739.739,0,0,1-.145-1.02.008.008,0,0,0,0-.008h0l0,0s0,0,0,0a.174.174,0,0,0,.049-.051,2.327,2.327,0,0,1,.355-.352.224.224,0,0,0,.049-.047.1.1,0,0,1,.018-.021.646.646,0,0,1,.092-.057l.025-.014.037-.023.006,0a1.628,1.628,0,0,1,.156-.094l.008-.006a1.371,1.371,0,0,1,.246-.111.609.609,0,0,1,.115-.045.165.165,0,0,0,.033-.01l.012,0,.012-.006.014,0a1.7,1.7,0,0,1,.238-.061c.041-.006.078-.012.115-.02a.526.526,0,0,0,.055-.008.564.564,0,0,0,.057-.008h.006c.068-.006.135-.01.211-.01a2.134,2.134,0,0,1,.27.016h.006a1.292,1.292,0,0,1,.172.031,1.179,1.179,0,0,1,.287.064.608.608,0,0,1,.145.055l.006,0,.059.023a1.3,1.3,0,0,1,.217.1l.008.006a1.149,1.149,0,0,0,.143.08.336.336,0,0,0,.088.051l.027.018.01.008.016.008.016.01a.043.043,0,0,1,.008.01l.008.008a.268.268,0,0,0,.049.057,2.2,2.2,0,0,1,.359.352.227.227,0,0,0,.035.039l.008.008.008.008,0,0s0,0,0,0a.741.741,0,0,1-.15,1.029.826.826,0,0,1-.238.111h-.01c-.006,0-.012,0-.018,0l-.027.006h-.027a.2.2,0,0,1-.033.006.078.078,0,0,0-.029.006l-.014,0-.014,0h-.006Z" transform="translate(-21825.201 17286.799)" fill="url(#linear-gradient)"/>
</svg>
