<svg xmlns="http://www.w3.org/2000/svg" width="12" height="12.02" viewBox="0 0 12 12.02">
  <g id="double-arrow" transform="translate(762.02 -1010) rotate(90)">
    <rect id="Rectangle_12591" data-name="Rectangle 12591" width="12" height="12" transform="translate(1010.02 750.02)" fill="none"/>
    <path id="Subtraction_476" data-name="Subtraction 476" d="M9.249,5.563a.119.119,0,0,1-.093-.041l-.229-.227a.141.141,0,0,1-.04-.091.134.134,0,0,1,.04-.085L10.99,3.075H1.042l2.051,2.04a.118.118,0,0,1,.04.085.119.119,0,0,1-.04.083l-.229.229a.124.124,0,0,1-.093.036.126.126,0,0,1-.093-.036L.04,2.871A.117.117,0,0,1,0,2.779V2.768a.115.115,0,0,1,.04-.09L2.682.035A.13.13,0,0,1,2.771,0a.138.138,0,0,1,.093.035L3.1.27a.145.145,0,0,1,0,.192L1.086,2.485h9.844l-2-2.019a.139.139,0,0,1-.039-.1A.13.13,0,0,1,8.927.272L9.156.04A.141.141,0,0,1,9.249.008.135.135,0,0,1,9.341.04l2.642,2.642a.129.129,0,0,1,.036.1v.009a.109.109,0,0,1-.036.091L9.341,5.521A.132.132,0,0,1,9.249,5.563Z" transform="translate(1010 753.005)" fill="#b8b6cb"/>
  </g>
</svg>
