<svg viewBox="0 0 24 24" fill="none" xmlns="http://www.w3.org/2000/svg">
<g clip-path="url(#clip0_9217_27165)">
<path d="M0 5.38317C0 2.41013 2.41013 0 5.38317 0H18.6168C21.5899 0 24 2.41013 24 5.38317V18.6168C24 21.5899 21.5899 24 18.6168 24H5.38317C2.41013 24 0 21.5899 0 18.6168V5.38317Z" fill="black"/>
<path fill-rule="evenodd" clip-rule="evenodd" d="M9.45477 5.24438H5.54517C5.37909 5.24438 5.24445 5.37902 5.24445 5.5451V9.4547C5.24445 9.62081 5.37909 9.75545 5.54517 9.75545H9.45477C9.62087 9.75545 9.75551 9.62081 9.75551 9.4547V5.5451C9.75551 5.37902 9.62087 5.24438 9.45477 5.24438ZM13.9678 9.75545H10.0582C9.89212 9.75545 9.75745 9.89011 9.75745 10.0562V13.9658C9.75745 14.1319 9.89212 14.2665 10.0582 14.2665H13.9678C14.1339 14.2665 14.2685 14.1319 14.2685 13.9658V10.0562C14.2685 9.89011 14.1339 9.75545 13.9678 9.75545ZM14.5674 5.24438H18.477C18.643 5.24438 18.7777 5.37902 18.7777 5.5451V9.4547C18.7777 9.62081 18.643 9.75545 18.477 9.75545H14.5674C14.4013 9.75545 14.2666 9.62081 14.2666 9.4547V5.5451C14.2666 5.37902 14.4013 5.24438 14.5674 5.24438ZM9.45479 14.2666H5.54517C5.37909 14.2666 5.24445 14.4012 5.24445 14.5673V18.4769C5.24445 18.643 5.37909 18.7776 5.54517 18.7776H9.45479C9.62087 18.7776 9.75551 18.643 9.75551 18.4769V14.5673C9.75551 14.4012 9.62087 14.2666 9.45479 14.2666ZM14.5674 14.2666H18.477C18.643 14.2666 18.7777 14.4012 18.7777 14.5673V18.4769C18.7777 18.643 18.643 18.7776 18.477 18.7776H14.5674C14.4013 18.7776 14.2666 18.643 14.2666 18.4769V14.5673C14.2666 14.4012 14.4013 14.2666 14.5674 14.2666Z" fill="white"/>
</g>
<defs>
<clipPath id="clip0_9217_27165">
<rect width="24" height="24" fill="white"/>
</clipPath>
</defs>
</svg>
