<svg xmlns="http://www.w3.org/2000/svg" xmlns:xlink="http://www.w3.org/1999/xlink" width="24" height="24" viewBox="0 0 24 24">
  <defs>
    <linearGradient id="linear-gradient" x1="0.093" x2="0.952" y2="1" gradientUnits="objectBoundingBox">
      <stop offset="0" stop-color="#39d1ff"/>
      <stop offset="1" stop-color="#3149ff"/>
    </linearGradient>
  </defs>
  <g id="refresh" transform="translate(-1004 -117)">
    <rect id="Rectangle_14092" data-name="Rectangle 14092" width="24" height="24" transform="translate(1004 117)" fill="none"/>
    <path id="Subtraction_510" data-name="Subtraction 510" d="M7588.836-5799.734a9.163,9.163,0,0,1-6.535-2.711,9.307,9.307,0,0,1,0-13.113,9.109,9.109,0,0,1,4.961-2.566l.007,0a8.345,8.345,0,0,1,1.556-.143,9.534,9.534,0,0,1,1.08.063,9.1,9.1,0,0,1,3.446,1.118l.519.292-.277-1.623a.83.83,0,0,1,.141-.626.835.835,0,0,1,.541-.343.71.71,0,0,1,.143-.013.833.833,0,0,1,.823.7l.671,3.926a.842.842,0,0,1-.143.626.846.846,0,0,1-.541.343l-3.911.67a.717.717,0,0,1-.143.013.834.834,0,0,1-.823-.7.836.836,0,0,1,.141-.626.833.833,0,0,1,.541-.341l2.241-.385-.687-.4a7.478,7.478,0,0,0-2.874-.967,7.905,7.905,0,0,0-.879-.05,6.874,6.874,0,0,0-1.273.115,7.491,7.491,0,0,0-4.077,2.1,7.555,7.555,0,0,0-2.213,5.37,7.556,7.556,0,0,0,2.213,5.37,7.5,7.5,0,0,0,5.353,2.221,7.5,7.5,0,0,0,5.35-2.221,7.492,7.492,0,0,0,2.133-4.229.822.822,0,0,1,.815-.717.714.714,0,0,1,.132.009.829.829,0,0,1,.55.33.835.835,0,0,1,.156.623,9.159,9.159,0,0,1-2.6,5.171A9.164,9.164,0,0,1,7588.836-5799.734Z" transform="translate(-6572.6 5938.4)" fill="url(#linear-gradient)"/>
  </g>
</svg>
