<svg width="30" height="30" viewBox="0 0 30 30" fill="none" xmlns="http://www.w3.org/2000/svg">
<rect width="30" height="30" rx="15" fill="#864E4E" fill-opacity="0.3"/>
<path d="M15 8.68581C11.4152 8.68581 8.90364 10.3635 8.90364 10.3635C10.2848 9.0207 12.6849 8.24356 12.6849 8.24356L12.462 8C10.2012 8.04647 8.15149 9.75298 8.15149 9.75298C5.84961 14.9975 6.00209 19.5418 6.00209 19.5418C7.87146 22.1953 10.6616 21.9966 10.6616 21.9966L11.6102 20.6859C9.93583 20.2901 8.87578 18.6733 8.87578 18.6733C8.87578 18.6733 11.3873 20.5481 15 20.5481C18.6126 20.5481 21.1242 18.6733 21.1242 18.6733C21.1242 18.6733 20.0641 20.3045 18.3898 20.6859L19.3384 21.9966C19.3384 21.9966 22.1138 22.1953 23.9979 19.5418C23.9979 19.5418 24.1518 15.0135 21.8353 9.75459C21.8367 9.75298 19.7856 8.04647 17.5262 8L17.3033 8.24356C17.3033 8.24356 19.7167 9.0207 21.0831 10.3635C21.111 10.3635 18.5862 8.68581 15.0014 8.68581M12.2392 14.2204C13.1042 14.2204 13.8153 15.0584 13.8021 16.0807C13.8021 17.087 13.1042 17.9411 12.2392 17.9411C11.3741 17.9411 10.6909 17.087 10.6909 16.0807C10.6909 15.0744 11.3609 14.2204 12.2392 14.2204ZM17.8194 14.2204C18.6845 14.2204 19.3824 15.0584 19.3824 16.0807C19.3824 17.103 18.6845 17.9411 17.8194 17.9411C16.9544 17.9411 16.2712 17.087 16.2712 16.0807C16.2712 15.0744 16.9412 14.2204 17.8194 14.2204Z" fill="#4F66FF"/>
</svg>
