<svg width="30" height="30" viewBox="0 0 30 30" fill="none" xmlns="http://www.w3.org/2000/svg">
<rect width="30" height="30" rx="15" fill="#864E4E" fill-opacity="0.3"/>
<path d="M7 20.3907C7.25706 20.4241 7.51857 20.4423 7.78306 20.4423C9.32095 20.4453 10.737 19.8781 11.8603 18.9271C10.4235 18.8922 9.211 17.8562 8.79346 16.432C8.99406 16.4745 9.20059 16.5003 9.4101 16.5003C9.71025 16.5003 9.99851 16.4608 10.2749 16.3805C8.77266 16.0407 7.64042 14.5861 7.64042 12.854V12.8085C8.08321 13.0815 8.58841 13.2469 9.12779 13.2711C8.24814 12.622 7.66865 11.5193 7.66865 10.2771C7.66865 9.62032 7.83061 9.00907 8.11293 8.48428C9.73254 10.6699 12.1516 12.1199 14.8796 12.3004C14.8232 12.0395 14.7949 11.768 14.7949 11.4905C14.7949 9.53386 16.2645 7.9701 18.0773 8.00043C19.0208 8.01712 19.8752 8.46001 20.474 9.15468C21.2229 9.00907 21.9242 8.72696 22.5587 8.33412C22.3135 9.15164 21.7935 9.83266 21.1144 10.2589C21.7786 10.183 22.4116 10.0041 23 9.73256C22.5602 10.4318 22.003 11.043 21.3611 11.5299C21.3685 11.6816 21.37 11.8333 21.37 11.9849C21.37 16.6368 18.0669 22.003 12.0297 22C10.1783 22 8.45171 21.4085 7 20.3907Z" fill="#1FA5FF"/>
</svg>
