<svg width="12" height="10" viewBox="0 0 12 10" fill="none" xmlns="http://www.w3.org/2000/svg">
<path d="M4.25059 6.78757L10.1744 0.242483C10.315 0.0871857 10.5052 0 10.7035 0C10.9018 0 11.092 0.0871857 11.2325 0.242483L11.7791 0.84642C11.8491 0.92377 11.9047 1.01571 11.9426 1.11696C11.9805 1.21821 12 1.32677 12 1.43642C12 1.54606 11.9805 1.65462 11.9426 1.75587C11.9047 1.85712 11.8491 1.94906 11.7791 2.02641L4.79311 9.74524C4.7573 9.78491 4.71798 9.82047 4.67575 9.85138C4.53157 9.9625 4.35684 10.0139 4.182 9.99675C4.00716 9.97957 3.84329 9.89483 3.71894 9.75731L0.220863 5.89228C0.150862 5.81493 0.0953159 5.72299 0.0574137 5.62174C0.0195115 5.52049 0 5.41193 0 5.30228C0 5.19264 0.0195115 5.08408 0.0574137 4.98283C0.0953159 4.88158 0.150862 4.78964 0.220863 4.71229L0.767507 4.10835C0.908033 3.95305 1.09825 3.86587 1.29653 3.86587C1.49481 3.86587 1.68503 3.95305 1.82555 4.10835L4.25059 6.78757Z" fill="white"/>
</svg>
