<svg width="30" height="30" viewBox="0 0 30 30" fill="none" xmlns="http://www.w3.org/2000/svg">
<rect width="30" height="30" rx="15" fill="#864E4E" fill-opacity="0.3"/>
<path d="M18.488 16.6C18.552 16.072 18.6 15.544 18.6 15C18.6 14.456 18.552 13.928 18.488 13.4H21.192C21.32 13.912 21.4 14.448 21.4 15C21.4 15.552 21.32 16.088 21.192 16.6M17.072 21.048C17.552 20.16 17.92 19.2 18.176 18.2H20.536C19.7609 19.5346 18.5313 20.5456 17.072 21.048ZM16.872 16.6H13.128C13.048 16.072 13 15.544 13 15C13 14.456 13.048 13.92 13.128 13.4H16.872C16.944 13.92 17 14.456 17 15C17 15.544 16.944 16.072 16.872 16.6ZM15 21.368C14.336 20.408 13.8 19.344 13.472 18.2H16.528C16.2 19.344 15.664 20.408 15 21.368ZM11.8 11.8H9.464C10.2311 10.4618 11.4598 9.44919 12.92 8.952C12.44 9.84 12.08 10.8 11.8 11.8ZM9.464 18.2H11.8C12.08 19.2 12.44 20.16 12.92 21.048C11.4629 20.5453 10.2359 19.5342 9.464 18.2ZM8.808 16.6C8.68 16.088 8.6 15.552 8.6 15C8.6 14.448 8.68 13.912 8.808 13.4H11.512C11.448 13.928 11.4 14.456 11.4 15C11.4 15.544 11.448 16.072 11.512 16.6M15 8.624C15.664 9.584 16.2 10.656 16.528 11.8H13.472C13.8 10.656 14.336 9.584 15 8.624ZM20.536 11.8H18.176C17.9256 10.8092 17.5549 9.85272 17.072 8.952C18.544 9.456 19.768 10.472 20.536 11.8ZM15 7C10.576 7 7 10.6 7 15C7 17.1217 7.84285 19.1566 9.34315 20.6569C10.8434 22.1571 12.8783 23 15 23C16.0506 23 17.0909 22.7931 18.0615 22.391C19.0321 21.989 19.914 21.3997 20.6569 20.6569C21.3997 19.914 21.989 19.0321 22.391 18.0615C22.7931 17.0909 23 16.0506 23 15C23 12.8783 22.1571 10.8434 20.6569 9.34315C19.1566 7.84285 17.1217 7 15 7Z" fill="#3278F0"/>
</svg>
