<svg xmlns="http://www.w3.org/2000/svg" xmlns:xlink="http://www.w3.org/1999/xlink" width="28" height="28" viewBox="0 0 28 28">
  <defs>
    <linearGradient id="linear-gradient" x2="0.961" y2="1.098" gradientUnits="objectBoundingBox">
      <stop offset="0" stop-color="#39d1ff"/>
      <stop offset="1" stop-color="#3149ff"/>
    </linearGradient>
  </defs>
  <g id="dice" transform="translate(-945 -229)">
    <rect id="Rectangle_14301" data-name="Rectangle 14301" width="28" height="28" transform="translate(945 229)" fill="none"/>
    <path id="Union_665" data-name="Union 665" d="M-18104.064,1646.94l-.029-.013h0c-.02-.011-.043-.022-.062-.035l-11.486-6.633a.705.705,0,0,1-.359-.613v-13.291a.706.706,0,0,1,.359-.613l11.508-6.646a.694.694,0,0,1,.354-.095.725.725,0,0,1,.359.095l11.5,6.646a.7.7,0,0,1,.357.613v13.291a.7.7,0,0,1-.357.613l-11.5,6.646a.723.723,0,0,1-.359.1A.7.7,0,0,1-18104.064,1646.94Zm1-1.884,10.084-5.824v-11.644l-10.084,5.825Zm-11.508-5.824,10.084,5.824V1633.41l-10.084-5.823Zm10.795-7.051,10.082-5.824-10.082-5.823-10.082,5.823Zm2.611,8.57v-.885a.712.712,0,0,1,.711-.712.712.712,0,0,1,.713.712v.885a.712.712,0,0,1-.713.712A.712.712,0,0,1-18101.17,1640.75Zm-7.457-1.256v-.885a.714.714,0,0,1,.713-.712.713.713,0,0,1,.711.712v.885a.71.71,0,0,1-.711.712A.711.711,0,0,1-18108.627,1639.495Zm9.891-2.507v-.889a.709.709,0,0,1,.713-.708.708.708,0,0,1,.711.708v.889a.712.712,0,0,1-.711.712A.712.712,0,0,1-18098.736,1636.987Zm-13.137-2.512v-.885a.711.711,0,0,1,.713-.712.71.71,0,0,1,.709.712v.885a.71.71,0,0,1-.709.712A.711.711,0,0,1-18111.873,1634.476Zm15.574-1.256v-.885a.714.714,0,0,1,.713-.712.712.712,0,0,1,.711.712v.885a.712.712,0,0,1-.711.712A.714.714,0,0,1-18096.3,1633.22Zm-7.926-6.154a.712.712,0,0,1-.713-.712.712.712,0,0,1,.713-.712h.887a.714.714,0,0,1,.715.712.714.714,0,0,1-.715.712Z" transform="translate(19063 -1390.001)" fill="url(#linear-gradient)"/>
  </g>
</svg>
