<svg xmlns="http://www.w3.org/2000/svg" width="20" height="20" viewBox="0 0 20 20">
  <g id="hide-earnings" transform="translate(-779 -151)">
    <rect id="Rectangle_14533" data-name="Rectangle 14533" width="20" height="20" transform="translate(779 151)" fill="none"/>
    <g id="hidden" transform="translate(778 148.667)">
      <path id="Path_37564" data-name="Path 37564" d="M18.048,5.2a.661.661,0,0,0-.938,0l-2.1,2.116a9.556,9.556,0,0,0-4.058-.978c-5.389,0-9.629,5.361-9.806,5.589a.669.669,0,0,0,0,.823A18.415,18.415,0,0,0,5.666,16.7L3.847,18.529a.669.669,0,0,0,0,.943.661.661,0,0,0,.938,0L18.048,6.138a.669.669,0,0,0,0-.943ZM7.632,12.333A3.329,3.329,0,0,1,10.948,9a3.232,3.232,0,0,1,1.81.571L8.2,14.153a3.273,3.273,0,0,1-.568-1.82Z" fill="#dedbf2"/>
      <path id="Path_37565" data-name="Path 37565" d="M24.923,13.888A19.258,19.258,0,0,0,21.4,10.571l-3.268,3.268a3.359,3.359,0,0,1,.048.474A3.451,3.451,0,0,1,14.73,17.76a3.36,3.36,0,0,1-.474-.048l-2.344,2.344a9.326,9.326,0,0,0,2.818.462c5.6,0,10.008-5.543,10.193-5.779a.689.689,0,0,0,0-.851Z" transform="translate(-4.07 -2.229)" fill="#dedbf2"/>
    </g>
  </g>
</svg>
